<?xml version="1.0" encoding="UTF-8"?>
<svg id="Capa_2" data-name="Capa 2" xmlns="http://www.w3.org/2000/svg" viewBox="0 0 731.95 700">
  <defs>
    <style>
      .cls-1 {
        fill: #f0f0f0;
      }

      .cls-2, .cls-3, .cls-4, .cls-5, .cls-6, .cls-7, .cls-8, .cls-9 {
        fill: #fff;
      }

      .cls-3 {
        opacity: .8;
      }

      .cls-3, .cls-4, .cls-5, .cls-6, .cls-10, .cls-7, .cls-8, .cls-11, .cls-12, .cls-9, .cls-13, .cls-14, .cls-15, .cls-16, .cls-17 {
        isolation: isolate;
      }

      .cls-18 {
        fill: #fafafa;
      }

      .cls-19 {
        letter-spacing: 0em;
      }

      .cls-20, .cls-13, .cls-15 {
        opacity: .2;
      }

      .cls-21 {
        fill: #37474f;
      }

      .cls-4, .cls-10, .cls-11, .cls-22 {
        opacity: .3;
      }

      .cls-23 {
        fill: #2c2c34;
      }

      .cls-5 {
        opacity: .45;
      }

      .cls-24 {
        letter-spacing: -.02em;
      }

      .cls-25, .cls-26 {
        fill: #455a64;
      }

      .cls-27 {
        letter-spacing: 0em;
      }

      .cls-6 {
        opacity: .05;
      }

      .cls-28 {
        fill: #f28f8f;
      }

      .cls-29 {
        letter-spacing: .03em;
      }

      .cls-7 {
        opacity: .55;
      }

      .cls-8, .cls-30 {
        opacity: .6;
      }

      .cls-31 {
        fill: #e6e6e6;
      }

      .cls-11, .cls-15, .cls-16, .cls-32 {
        fill: #96969a;
      }

      .cls-12 {
        opacity: .4;
      }

      .cls-33 {
        letter-spacing: -.01em;
      }

      .cls-34 {
        letter-spacing: -.02em;
      }

      .cls-9, .cls-16 {
        opacity: .35;
      }

      .cls-35 {
        opacity: .1;
      }

      .cls-36 {
        fill: #ebebeb;
      }

      .cls-37, .cls-14 {
        opacity: .1;
      }

      .cls-38 {
        letter-spacing: -.02em;
      }

      .cls-39 {
        letter-spacing: 0em;
      }

      .cls-40 {
        fill: #b16668;
      }

      .cls-41 {
        fill: #263238;
      }

      .cls-26 {
        font-family: MontserratRoman-Bold, Montserrat;
        font-size: 21px;
        font-variation-settings: 'wght' 700;
        font-weight: 700;
      }

      .cls-42 {
        fill: #ffa8a7;
      }

      .cls-17 {
        opacity: .25;
      }
    </style>
  </defs>
  <g id="Capa_1-2" data-name="Capa 1">
    <g>
      <g>
        <g id="freepik--Shadows--inject-62" class="cls-35">
          <path id="freepik--Shadow--inject-62" class="cls-23" d="m251.51,527.09L2.06,671.01c-2.74,1.57-2.74,4.15,0,5.73l36.65,21.11c3.12,1.58,6.81,1.58,9.93,0l249.45-143.93c2.74-1.57,2.74-4.15,0-5.73l-36.66-21.11c-3.12-1.57-6.8-1.57-9.91.02Z"/>
          <ellipse id="freepik--shadow--inject-62" class="cls-23" cx="563.84" cy="589.58" rx="110.52" ry="63.82"/>
        </g>
        <g id="freepik--Device--inject-62">
          <g id="freepik--Mobile--inject-62">
            <path class="cls-21" d="m278.85,536.03V37.19c0-12.83-6.37-16.37-12.03-19.64-5.65-3.27-14.99-5.23-23.04-.53L37.81,135.88c-8.05,4.7-14.58,15.94-14.58,25.23v498.84c0,9.29,5.84,14.77,11.49,18.03,5.65,3.26,15.54,6.86,23.58,2.22l205.98-119.02c9.27-4.9,14.93-14.67,14.56-25.15Z"/>
            <path class="cls-41" d="m265.76,540.76l-211.81,122.29V162.05l-26.5-15.3c-2.61,4.34-4.06,9.28-4.23,14.34v498.86c0,9.29,5.84,14.77,11.49,18.03,5.65,3.26,15.54,6.86,23.58,2.22l205.98-119.02c5.73-3.08,10.19-8.07,12.62-14.09l-.83-.49-10.32-5.84Z"/>
            <path class="cls-25" d="m263.91,32.88L57.34,152.17c-6.04,3.93-9.84,10.5-10.24,17.7v494.77c0,9.98,7.09,14.09,15.66,9.07l201.16-116.09c6.83-4.47,11.13-11.91,11.59-20.06V39.57c0-7.36-5.21-10.37-11.59-6.69Z"/>
            <path d="m265.37,63.22v462.51c-.43,7.73-4.49,14.79-10.96,19.04l-186.23,107.57c-6.06,3.52-10.96.69-10.96-6.34V180.09c.34-6.32,3.1-12.26,7.7-16.6l1.05-.94c.7-.58,1.44-1.1,2.22-1.57l52.38-30.26,3.41-1.96c1.89-1.1,3.41-.22,3.41,1.96s1.57,3.01,3.66,1.83l61.08-35.24c2.11-1.32,3.46-3.56,3.65-6.04.15-2.27,1.3-4.36,3.13-5.72l.36-.22,51.24-29.57,1.1-.64c7.49-4.38,13.75-.77,13.75,8.08Z"/>
            <path class="cls-41" d="m238.43,532.46c6.48-4.25,10.55-11.33,10.96-19.07V56.37l-50.27,29.02-.36.22c-1.83,1.35-2.98,3.44-3.13,5.72-.19,2.48-1.54,4.72-3.65,6.04l-61.08,35.24c-2.02,1.17-3.66.34-3.66-1.83s-1.57-3.13-3.41-1.96l-3.41,1.96-52.24,30.32c-.78.47-1.52.99-2.22,1.57l-1.05.94c-4.61,4.33-7.38,10.28-7.72,16.6v456.97l181.25-104.71Z"/>
            <path class="cls-41" d="m140.31,114l27.97-16.16c1.68-.97,3.02-.28,3.02,1.57-.16,2.04-1.28,3.89-3.02,4.98l-27.99,16.16c-1.66.96-3.02.28-3.02-1.57.17-2.05,1.29-3.9,3.04-4.98Z"/>
            <path class="cls-41" d="m182.65,88.23c1.88-1.1,3.41-.2,3.41,1.96-.13,2.4-1.4,4.59-3.41,5.9-1.88,1.08-3.4.2-3.4-1.97.13-2.39,1.39-4.58,3.4-5.89Z"/>
            <path class="cls-25" d="m42.35,220.95c-.14-3.92-2.14-7.54-5.39-9.74-1.08-.79-2.5-.91-3.7-.31-.67.41-3.34,1.89-4.04,2.32-1.19.89-1.82,2.34-1.66,3.82v40.72c.14,3.92,2.14,7.54,5.39,9.74,1.03.75,2.39.89,3.55.38.75-.39,3.46-1.96,4.17-2.38,1.2-.89,1.83-2.34,1.68-3.82v-40.72Z"/>
            <path class="cls-21" d="m38.29,223.27v40.72c0,3.66-2.41,5.25-5.39,3.52-3.25-2.2-5.25-5.82-5.39-9.74v-40.72c0-3.66,2.41-5.23,5.39-3.52,3.25,2.2,5.25,5.82,5.39,9.74Z"/>
            <path class="cls-25" d="m42.35,292.09c-.14-3.92-2.14-7.54-5.39-9.74-1.08-.77-2.5-.89-3.7-.3-.67.41-3.34,1.89-4.04,2.32-1.19.89-1.82,2.34-1.66,3.82v40.72c.14,3.92,2.14,7.54,5.39,9.74,1.04.74,2.39.88,3.55.38.75-.39,3.46-1.96,4.17-2.38,1.2-.89,1.83-2.34,1.68-3.82v-40.73Z"/>
            <path class="cls-21" d="m38.29,294.41v40.72c0,3.66-2.41,5.25-5.39,3.52-3.25-2.2-5.25-5.82-5.39-9.74v-40.72c0-3.66,2.41-5.25,5.39-3.52,3.25,2.2,5.25,5.82,5.39,9.74Z"/>
          </g>
        </g>
        <g id="freepik--Screen--inject-62">
          <g id="freepik--Window--inject-62">
            <path class="cls-32" d="m301.39,78.78c-2.55-1.47-6.08-1.27-9.96.97l-1.11.66-52.01,30.02c-.13.06-.25.13-.36.22-1.85,1.38-3,3.51-3.13,5.81-.2,2.51-1.57,4.79-3.71,6.12l-61.97,35.77h-.14c.06-.84-.33-1.64-1.02-2.11l-3.57-2.07c-.8-.36-1.73-.27-2.44.25l-3.48,2-53.17,30.69c-.79.47-1.55.99-2.27,1.57l-1.06.96c-4.67,4.41-7.48,10.44-7.83,16.85v472.96c0,3.55,1.24,6.04,3.26,7.2l3.6,2.08c2.02,1.17,4.81,1,7.83-.78l189.05-109.15c6.63-4.27,10.84-11.44,11.32-19.31V89.98c0-4.48-1.57-7.63-4.13-9.11l-3.7-2.08Z"/>
            <path class="cls-10" d="m109.99,686.48v.92l-1.06.61c-3.13,1.79-5.86,1.96-7.83.8l-3.6-2.08c-2.02-1.17-3.26-3.66-3.26-7.22V206.51c.17-4.26,1.5-8.38,3.85-11.93l4.21,2.54c-2.27,3.43-3.57,7.43-3.74,11.54v472.94c-.09,1.92.46,3.82,1.57,5.39.9,1.19,2.31,1.88,3.81,1.86,1.63-.07,3.22-.57,4.6-1.44l1.46-.92Z"/>
            <path class="cls-10" d="m240.52,114.9c-.79,1.05-1.24,2.31-1.3,3.62-.06,1.49-.54,2.92-1.38,4.15l-4.29-2.47c.78-1.1,1.23-2.4,1.3-3.74.07-1.45.55-2.85,1.39-4.02l4.28,2.47Z"/>
            <path class="cls-18" d="m103.93,688.75c-1.49.05-2.91-.62-3.84-1.79-1.11-1.57-1.66-3.47-1.57-5.39V208.64c.38-6.18,3.11-11.99,7.63-16.22l.33-.3.7-.63c.67-.55,1.39-1.04,2.15-1.47l53.25-30.71,3.48-1.99c.35-.23.75-.36,1.16-.38,1,0,1.11,1.17,1.11,1.68-.2,1.56.9,2.99,2.47,3.19.1.01.19.02.29.02.76-.02,1.5-.25,2.15-.66l61.97-35.77c2.39-1.48,3.92-4.02,4.1-6.83.14-2.04,1.15-3.92,2.77-5.15.09-.07.19-.12.3-.17l52.01-30.02,1.11-.66c1.77-1.11,3.8-1.73,5.89-1.82,4.35,0,7.06,3.57,7.06,9.29v469.45c-.41,7.59-4.41,14.53-10.77,18.68l-189.13,109.11c-1.38.88-2.97,1.39-4.6,1.47Z"/>
            <path class="cls-32" d="m301.29,81.49h0c3.93,0,6.26,3.13,6.26,8.49v469.51c-.45,7.29-4.28,13.95-10.37,17.99l-189.07,109.15c-1.26.8-2.71,1.25-4.2,1.33-2.87,0-4.57-2.4-4.57-6.39V208.64c.35-5.96,2.96-11.57,7.31-15.66l.36-.34.61-.55c.66-.52,1.36-1,2.08-1.43l53.25-30.71,3.46-1.99c.23-.15.49-.24.77-.27.31,0,.31.8.31.88-.21,1.99,1.23,3.77,3.22,3.97.11.01.22.02.33.02.9-.02,1.77-.28,2.54-.75l61.97-35.77c2.63-1.63,4.31-4.43,4.51-7.52.13-1.78,1.01-3.42,2.43-4.51l.23-.14,52.02-30.02,1.1-.64c1.66-1.03,3.55-1.62,5.5-1.71m0-1.57c-2.22.08-4.38.74-6.26,1.91l-1.11.66-52.1,30.04c-.12.06-.24.14-.34.22-1.85,1.38-2.99,3.5-3.13,5.79-.19,2.52-1.56,4.79-3.7,6.14l-61.98,35.77c-.52.34-1.12.53-1.74.55-1.17,0-1.96-.88-1.96-2.41s-.78-2.47-1.91-2.47c-.56.02-1.1.19-1.57.49l-3.46,1.99-53.15,30.68c-.8.46-1.57.99-2.29,1.57l-1.05.96c-4.67,4.4-7.47,10.43-7.83,16.83v472.94c0,5.04,2.52,7.97,6.17,7.97,1.78-.08,3.51-.62,5.01-1.57l189.05-109.15c6.6-4.3,10.76-11.48,11.21-19.34V89.98c0-6.37-3.21-10.07-7.83-10.07l-.03.03Z"/>
          </g>
        </g>
        <g id="freepik--Robot--inject-62">
          <g id="freepik--robot--inject-62">
            <path class="cls-41" d="m330.75,367.81c-.9-.23-1.83-.27-2.74-.14-5.16.91-9.58,4.22-11.9,8.93-1.25,2.98-.58,5.36,1.47,6.37.17.09.34.16.52.22,25.13,10.59,64.46,9.54,100.9-26.18l-13.15-13.44c-27.23,26.62-55.56,30.04-75.09,24.24Z"/>
            <path class="cls-41" d="m447.2,352.7c.16,1.33-.36,2.64-1.39,3.49-7.55,6.43-18.37,7.32-26.87,2.22-1.87-1.09-2.51-3.48-1.43-5.36,1.09-1.87,3.48-2.51,5.36-1.43,5.68,3.41,12.9,2.82,17.95-1.47,1.68-1.38,4.16-1.13,5.53.55.47.57.76,1.26.86,1.99h0Z"/>
            <circle class="cls-32" cx="412.42" cy="350.21" r="18.07"/>
            <path class="cls-13" d="m422.36,335.13c2.65,1.99,6.08,11.23-1.57,18.53-8.9,8.43-24.95,3.55-26.15-6.26-1.57,9.86,5.16,19.12,15.01,20.68,9.86,1.57,19.12-5.16,20.68-15.01,1.11-7.01-1.98-14.03-7.92-17.93h-.06Z"/>
            <path class="cls-4" d="m399.16,340.94c-.13.15-.24.3-.34.47-.63.92-1.1,1.95-1.39,3.02-.44,1.18-.51,2.46-.2,3.68.39,1.29,1.68,2.07,3.01,1.83,1.21-.38,1.72-1.75,2.11-2.94,1.02-3.08,2.36-6.04,3.99-8.85.2-.26.28-.6.22-.92-.14-.41-.67-.5-1.11-.49-2.58.17-4.59,2.24-6.28,4.2Z"/>
            <path class="cls-41" d="m431.56,321.24c.24,1.98-1.05,3.82-2.99,4.28-6.48,1.4-11.34,6.78-12.07,13.37-.27,2.16-2.25,3.69-4.41,3.42-2.16-.27-3.69-2.25-3.42-4.41h0c1.11-9.86,8.39-17.91,18.09-20.01,2.05-.49,4.12.77,4.61,2.82.04.17.07.35.09.53h.11Z"/>
            <path class="cls-32" d="m149.2,350.16c0,67.34,29.61,207.94,99.6,207.94s99.57-140.68,99.57-207.94h-199.17Z"/>
            <path class="cls-3" d="m149.2,350.16c0,67.34,29.61,207.94,99.6,207.94s99.57-140.68,99.57-207.94h-199.17Z"/>
            <path class="cls-32" d="m348.37,350.16c-2.82,40.54-13.95,68.09-31.52,77.83-7.36,4.07-17.7,4.07-26.62,0-14.96-6.95-25.15-23.68-26.73-31.67l-3.84.77c1.77,8.97,12.64,26.89,28.91,34.45,5.29,2.22,10.97,3.38,16.71,3.43,4.71.01,9.34-1.19,13.45-3.48,12.06-6.69,21.24-20.89,27.06-41.3,1.67-13.26,2.56-26.6,2.66-39.97l-.08-.08Z"/>
            <path class="cls-32" d="m317.66,388.17c0,70.31-11.6,122.9-34.56,157.17,2.96-2.35,5.75-4.9,8.35-7.64,19.5-34.72,29.35-84.69,29.35-149.53h-3.13Z"/>
            <path class="cls-15" d="m242.21,529.75c-30.4-27.53-36.18-108.06-27.59-125.58v-54.01h-65.41c0,67.34,29.61,207.94,99.6,207.94,23.49,0,42.44-15.88,57.24-39.51.05.02-33.45,38.71-63.83,11.17Z"/>
            <path class="cls-32" d="m319.22,390.83c-38.9,22.46-101.96,22.46-140.86,0-19.45-11.23-29.16-25.95-29.16-40.72s9.71-29.43,29.16-40.72c38.9-22.47,101.96-22.46,140.86,0,19.45,11.23,29.18,25.93,29.18,40.72s-9.73,29.49-29.18,40.72Z"/>
            <path class="cls-8" d="m319.22,390.83c-38.9,22.46-101.96,22.46-140.86,0-19.45-11.23-29.16-25.95-29.16-40.72s9.71-29.43,29.16-40.72c38.9-22.47,101.96-22.46,140.86,0,19.45,11.23,29.18,25.93,29.18,40.72s-9.73,29.49-29.18,40.72Z"/>
            <path class="cls-11" d="m320.31,362.71c11.23-10.72,16.63-26.18,14.5-41.56-4.7-4.53-9.97-8.44-15.66-11.64-38.9-22.46-101.96-22.46-140.86,0-19.45,11.23-29.16,25.93-29.16,40.72s9.71,29.44,29.16,40.72c33.15,19.12,83.83,21.92,122.15,8.47-39.15,12-89.97,1.3-94.29-19.89,23.57,9.77,83.45,13.81,114.16-16.82Z"/>
            <path class="cls-25" d="m151.53,393.31c-16.84,10.59-21.9,32.83-11.31,49.67,10.03,15.95,30.67,21.48,47.33,12.66,4.6-2.66,7.45-8.36,7.45-16.47,0-16.24-11.39-36.02-25.43-44.08-7.06-4.06-13.44-4.43-18.04-1.77Z"/>
            <path class="cls-21" d="m167.66,451.44c-18.42,1.68-31.7-13.08-33.83-31.49-2.46,19.74,11.54,37.74,31.28,40.2,7.76.97,15.62-.62,22.4-4.51,4.6-2.66,7.45-8.36,7.45-16.47-.04-3.46-.5-6.91-1.38-10.26-.02,10.29-6.22,20.73-25.93,22.54Z"/>
            <path class="cls-41" d="m148.62,424.77c-5.64-3.24-10.19-.61-10.19,5.89.38,7.17,4.17,13.73,10.19,17.65,5.62,3.26,10.18.61,10.18-5.89-.39-7.17-4.17-13.72-10.18-17.65Z"/>
            <path class="cls-32" d="m142.09,428.54c.39,7.17,4.18,13.73,10.19,17.65,1.52.98,3.31,1.45,5.12,1.35.99-1.52,1.48-3.31,1.39-5.12-.39-7.17-4.17-13.72-10.18-17.65-1.53-.97-3.33-1.44-5.14-1.35-.98,1.52-1.47,3.31-1.39,5.12Z"/>
            <path class="cls-14" d="m142.54,432.24c1.33,5.73,4.82,10.73,9.74,13.95,1.52.98,3.31,1.45,5.12,1.35.99-1.52,1.48-3.31,1.39-5.12-.02-1.74-.3-3.47-.83-5.14-3.16,5.7-13.8.49-15.43-5.04Z"/>
            <path class="cls-41" d="m155.59,444.11c.33-.86.49-1.78.47-2.71-.28-5.23-3.05-10.01-7.44-12.87-2.8-1.57-5.25-1.22-6.5.69-.11.15-.2.32-.28.49-13.51,23.69-17.23,62.86,13.94,103.36l14.91-11.45c-23.26-30.29-23.26-58.82-15.1-77.5Z"/>
            <path class="cls-41" d="m156.59,561.51c-1.34,0-2.58-.68-3.3-1.8-5.48-8.27-5.07-19.12,1.02-26.95,1.3-1.73,3.75-2.08,5.48-.78,1.73,1.3,2.08,3.75.78,5.48-4.07,5.23-4.35,12.48-.69,18.01,1.17,1.82.64,4.24-1.18,5.41-.63.4-1.36.62-2.11.62v.02Z"/>
            <circle class="cls-32" cx="163.22" cy="527.29" r="18.07" transform="translate(-325.04 269.86) rotate(-45)"/>
            <path class="cls-13" d="m177.01,538.96c-2.29,2.38-11.87,4.7-18.21-3.84-7.28-9.83-.53-25.2,9.4-25.21-9.6-2.73-19.6,2.83-22.33,12.43-2.73,9.6,2.83,19.6,12.43,22.33,6.83,1.95,14.17-.29,18.75-5.71h-.03Z"/>
            <path class="cls-4" d="m174.02,515.22c-.13-.15-.28-.28-.44-.41-.85-.72-1.8-1.3-2.82-1.74-1.12-.57-2.39-.8-3.63-.64-1.33.24-2.27,1.43-2.19,2.77.23,1.24,1.57,1.91,2.68,2.44,2.93,1.39,5.72,3.08,8.32,5.03.24.23.56.35.89.33.42-.09.58-.61.6-1.05.16-2.58-1.66-4.82-3.4-6.73Z"/>
            <path class="cls-41" d="m189.7,549.75c-1.97,0-3.63-1.46-3.88-3.41-.61-6.61-5.38-12.08-11.84-13.59-2.1-.53-3.37-2.66-2.84-4.75s2.66-3.37,4.75-2.84c9.66,2.28,16.79,10.47,17.71,20.36.24,2.14-1.31,4.07-3.45,4.31,0,0,0,0-.01,0l-.44-.06Z"/>
            <path class="cls-21" d="m329.14,319.51c0-11.87-7.83-23.74-23.49-32.79-31.32-18.12-82.23-18.12-113.62,0-15.66,9.05-23.49,20.92-23.49,32.79v14.71c0,11.87,7.83,23.74,23.49,32.79,31.32,18.12,82.25,18.12,113.62,0,15.66-9.05,23.49-20.92,23.49-32.79v-14.71Z"/>
            <path class="cls-41" d="m261.41,380.01c-19.32.39-44.44-8.41-38.05-31.1v-73.38c-10.98,1.99-21.57,5.77-31.32,11.2-15.66,9.05-23.49,20.92-23.49,32.79v14.71c0,11.87,7.83,23.74,23.49,32.79,18.86,10.92,44.85,15.24,69.38,13Z"/>
            <path class="cls-41" d="m305.6,352.32c-31.32,18.12-82.23,18.1-113.62,0-15.66-9.07-23.49-20.94-23.49-32.89s7.83-23.74,23.49-32.79c31.32-18.12,82.25-18.12,113.62,0,15.66,9.05,23.49,20.92,23.49,32.79s-7.8,23.82-23.49,32.89Z"/>
            <path class="cls-41" d="m356.9,341.19l-3.48-3.13c3.35-3.71,7.2-9.4,6.5-15.66-.53-4.6-3.59-8.86-9.1-12.65-6.3-4.37-13.14-7.91-20.36-10.51-.44-1.82-1.33-4.7-1.57-5.48,8.77,2.76,17.07,6.85,24.6,12.12,6.66,4.59,10.4,9.98,11.09,15.97.91,7.96-3.7,14.89-7.69,19.34Z"/>
            <path class="cls-32" d="m358.33,335.19c-4.54-3.55-7.56-1.57-13.62,5.83s-4.35,10.4-.6,13.36c3.76,2.96,7.83,1.14,12.62-5.03,5.32-6.94,7-9.91,1.6-14.16Z"/>
            <path class="cls-4" d="m347.9,340.25c-1.61,1.51-2.99,3.25-4.09,5.17-.76,1.26-.93,2.79-.47,4.18.29.6.71,1.14,1.22,1.57.99.98,2.3,1.57,3.7,1.66.25.02.49-.03.7-.16.26-.22.41-.54.41-.88.19-1.46-.2-2.93,0-4.38.42-3.7,4.31-6.41,4.34-10.12.01-.2-.03-.41-.11-.6-.41-.75-1.57-.3-2.18,0-.27.2-.51.43-.74.67-.41.42-.83.85-1.24,1.28l-1.55,1.6Z"/>
            <path class="cls-32" d="m338.75,315.85c.66-49.68-39.09-90.49-88.77-91.15-49.68-.66-90.49,39.09-91.15,88.77-.01.79-.01,1.58,0,2.37,0,13.28,8.79,26.62,26.36,36.72,35.13,20.36,92.08,20.36,127.22,0,17.57-10.15,26.34-23.43,26.34-36.72Z"/>
            <path class="cls-3" d="m338.75,315.85c.66-49.68-39.09-90.49-88.77-91.15-49.68-.66-90.49,39.09-91.15,88.77-.01.79-.01,1.58,0,2.37,0,13.28,8.79,26.62,26.36,36.72,35.13,20.36,92.08,20.36,127.22,0,17.57-10.15,26.34-23.43,26.34-36.72Z"/>
            <path class="cls-11" d="m326.95,341.58c-46.79,28.83-108.56,25.78-109.95-4.84-.96-20.89-11.75-38.32-25.79-46.4,1.43-32.89,23.26-58.96,46.86-63.78h0c-45.18,5.43-79.19,43.76-79.21,89.26,0,13.28,8.79,26.62,26.36,36.72,35.13,20.36,92.08,20.36,127.22,0,3.81-2.18,7.42-4.7,10.77-7.53l3.62-3.32.13-.11Z"/>
            <path class="cls-25" d="m336.03,293.85c-3.99-15.86-12.24-30.33-23.87-41.84,0,9.4-6.15,18.79-18.54,25.89-14.6,8.43-34.45,11.89-53.51,10.38-8.57-.72-16.25,5.28-17.63,13.77-1.38,8.52-2.22,16.77-2.71,24.12-.63,8.77,5.82,16.45,14.56,17.35,26.87,2.6,55.44-2.08,76.16-14.09,17.02-9.82,25.54-22.68,25.54-35.56Z"/>
            <path class="cls-32" d="m256.94,321.69c-.25.02-.5.02-.75,0-2.13-.39-3.53-2.44-3.14-4.56,0,0,0-.02,0-.03,1.87-9.64,11.21-15.93,20.84-14.05,4.63.9,8.7,3.6,11.34,7.51,1.21,1.79.74,4.23-1.06,5.44-1.79,1.21-4.23.74-5.44-1.06-3.08-4.55-9.26-5.74-13.81-2.67-2.17,1.47-3.68,3.74-4.19,6.31-.38,1.8-1.97,3.09-3.81,3.1Z"/>
            <path class="cls-4" d="m256.94,321.69c-.25.02-.5.02-.75,0-2.13-.39-3.53-2.44-3.14-4.56,0,0,0-.02,0-.03,1.87-9.64,11.21-15.93,20.84-14.05,4.63.9,8.7,3.6,11.34,7.51,1.21,1.79.74,4.23-1.06,5.44-1.79,1.21-4.23.74-5.44-1.06-3.08-4.55-9.26-5.74-13.81-2.67-2.17,1.47-3.68,3.74-4.19,6.31-.38,1.8-1.97,3.09-3.81,3.1Z"/>
            <path class="cls-32" d="m328.97,275.04c-5.96,2.54-10.06,8.12-10.7,14.56-.21,2.15,1.36,4.06,3.51,4.28.25.03.5.03.75,0,1.86-.18,3.34-1.65,3.52-3.51.38-3.67,2.76-6.82,6.19-8.19-.98-2.42-2.07-4.8-3.27-7.14Z"/>
            <path class="cls-4" d="m328.97,275.04c-5.96,2.54-10.06,8.12-10.7,14.56-.21,2.15,1.36,4.06,3.51,4.28.25.03.5.03.75,0,1.86-.18,3.34-1.65,3.52-3.51.38-3.67,2.76-6.82,6.19-8.19-.98-2.42-2.07-4.8-3.27-7.14Z"/>
            <g class="cls-37">
              <path class="cls-2" d="m294.15,277.58c8.53,15.9,14.72,32.95,18.37,50.61,3.51-2.14,6.82-4.6,9.88-7.34-3.63-13.75-9.9-32.26-20.15-49.16-2.49,2.23-5.21,4.2-8.1,5.89Z"/>
              <path class="cls-2" d="m286.92,281.24c-5.71,2.45-11.67,4.27-17.77,5.43,3.38,18.2,5.47,36.62,6.26,55.11,8.86-1.58,17.5-4.16,25.78-7.69-3.26-17.99-8.03-35.67-14.27-52.85Z"/>
            </g>
            <path class="cls-32" d="m136.12,274.68c3.03,3.03,3.03,7.94,0,10.96-3.03,3.03-7.94,3.03-10.96,0s-3.03-7.94,0-10.96c0,0,0,0,0,0,3.04-2.98,7.92-2.98,10.96,0Z"/>
            <path class="cls-10" d="m136.12,274.68c3.03,3.03,3.03,7.93,0,10.96-3.03,3.03-7.93,3.03-10.96,0-2.29-2.29-2.92-5.76-1.57-8.71,0,.19,0,.39.13.58.72,2.27,3.88,3.27,7.05,2.26s5.09-3.6,4.42-5.86c.34.22.65.48.94.77Z"/>
            <path class="cls-41" d="m135.01,281.79c-1.29.43-2.3,1.45-2.72,2.74-.17.46-.09.97.22,1.35l32.89,32.89,3.87-3.87-32.89-32.89c-.38-.32-.9-.4-1.36-.22Z"/>
            <path class="cls-4" d="m125.68,275.15c-.32.33-.41.81-.23,1.24.31.45,1.02.31,1.57.16,1.95-.4,3.93-.6,5.92-.6.39,0,.79-.07,1.14-.23.36-.24.46-.73.21-1.09-.01-.02-.03-.04-.04-.06-.28-.37-.65-.68-1.06-.89-.98-.56-2.11-.81-3.24-.7-1,.05-1.96.35-2.82.86-.56.34-1.05.79-1.44,1.32Z"/>
            <path class="cls-25" d="m167.18,292.03c-16.84,10.59-21.9,32.83-11.31,49.67,10.03,15.96,30.67,21.48,47.33,12.66,4.6-2.66,7.45-8.36,7.45-16.47,0-16.22-11.39-36.02-25.43-44.07-7.06-4.06-13.44-4.45-18.04-1.79Z"/>
            <path class="cls-21" d="m183.31,350.16c-18.42,1.68-31.7-13.08-33.83-31.49-2.46,19.74,11.54,37.74,31.28,40.2,7.76.97,15.62-.62,22.4-4.51,4.6-2.66,7.45-8.36,7.45-16.47-.03-3.46-.49-6.9-1.36-10.24-.03,10.29-6.23,20.72-25.95,22.52Z"/>
            <path class="cls-41" d="m164.27,323.51c-5.64-3.26-10.19-.63-10.19,5.87.38,7.17,4.17,13.73,10.19,17.65,5.62,3.26,10.18.63,10.18-5.87-.39-7.17-4.17-13.73-10.18-17.65Z"/>
            <path class="cls-32" d="m157.74,327.27c.39,7.17,4.18,13.73,10.19,17.65,1.52.98,3.31,1.45,5.12,1.35.99-1.51,1.48-3.3,1.39-5.11-.39-7.17-4.17-13.73-10.18-17.65-1.53-.98-3.33-1.45-5.14-1.35-.99,1.51-1.47,3.3-1.39,5.11Z"/>
            <path class="cls-14" d="m158.19,330.96c1.32,5.73,4.81,10.73,9.74,13.95,1.52.98,3.31,1.45,5.12,1.35.99-1.51,1.48-3.3,1.39-5.11-.02-1.75-.3-3.49-.83-5.15-3.16,5.67-13.8.49-15.43-5.04Z"/>
            <path class="cls-41" d="m276.8,203.69c-11.38-6.65-25.47-6.65-36.85,0l-19.4,11.21c-28.51,16.5-46.07,46.93-46.1,79.87h0c.05.56.41,1.05.92,1.28,1.39.7,3.04.7,4.43,0,.51-.23.86-.72.91-1.28h0c.05-30.68,16.42-59.03,42.97-74.4l19.4-11.21c14.64-8.42,33.34-3.37,41.76,11.27,2.36,4.11,3.74,8.71,4.02,13.44v1.46c2.99,1.46,6.26,3.45,6.26,3.45v-3.13c.11-13.18-6.9-25.39-18.32-31.95Z"/>
            <path class="cls-32" d="m175.31,299.12c-3.95-2.51-8.59-3.73-13.26-3.48-.77.64-1.57,1.3-2.21,1.99,1.21-.36,2.47-.53,3.73-.53,3.88.15,7.66,1.31,10.96,3.37,13.83,7.99,25.06,27.45,25.06,43.39,0,6.17-1.69,10.96-4.7,14,.94-.25,1.89-.58,2.83-.92,2.47-3.9,3.69-8.46,3.49-13.08-.05-16.44-11.65-36.52-25.9-44.74Z"/>
            <g class="cls-22">
              <path class="cls-2" d="m175.31,299.12c-3.95-2.51-8.59-3.73-13.26-3.48-.77.64-1.57,1.3-2.21,1.99,1.21-.36,2.47-.53,3.73-.53,3.88.15,7.66,1.31,10.96,3.37,13.83,7.99,25.06,27.45,25.06,43.39,0,6.17-1.69,10.96-4.7,14,.94-.25,1.89-.58,2.83-.92,2.47-3.9,3.69-8.46,3.49-13.08-.05-16.44-11.65-36.52-25.9-44.74Z"/>
            </g>
          </g>
        </g>
        <g id="freepik--Character--inject-62">
          <g id="freepik--Cushion--inject-62">
            <path class="cls-32" d="m622.91,436.31c7.38-2.69,15.88,4.43,30.1,7.38,26.47,5.48,39.73,13.23,53.97,23.19,14.24,9.96,17.81,6.75,23.19,13.84,5.39,7.09-2.99,12.89-4.51,25.31-2.57,20.92-8.53,36.02-16.13,46.46-13.41,18.35-8.32,27.44-16.07,29.32-8.27,2.02-9.47-5.2-23.71-6.91-33.65-4.06-48.94-11.43-68.45-28.75-7.61-6.75-14.47-4.26-17.84-11.82-1.68-3.77,3.52-7.38,5.53-21.09,3.34-22.79,12.14-45.63,22.97-59.1,4.73-5.87,3.43-15.08,10.95-17.82Z"/>
            <path class="cls-13" d="m725.23,496.12c-4.12,10.82-.92,19.75-9.91,40.01-8.63,19.45-16.71,26.37-18.68,34.61-1.57,6.86-5.25,10.79-8.1,3.99-2.85-6.8-2.47-28.39,5.92-48.97,9.73-23.69,17.23-33.73,22.9-38.29,8.93-7.16,11.12.13,7.88,8.64Z"/>
            <path class="cls-13" d="m633.06,566.7c9.85,3.85,21.36,6.39,36.69,8.24,5.24.58,10.27,2.36,14.71,5.2-5.73-4.7-8-12.11-17.23-12.86-6.66-.58-21.89,2.32-34.17-.58Zm-48.63-30.6c3.6,5.43,9.91,3.92,16.87,10.09,6.05,5.54,12.65,10.46,19.69,14.69-8.41-6.67-10.1-15.38-16.57-18.79-7.78-4.29-13.86-1.33-19.98-6.01v.03Z"/>
            <path class="cls-6" d="m638.09,451.84c18.89-1.25,39.29,3.43,55.25,14.09,3.19,2.29,5.33,5.75,5.97,9.62.92,4.88-.72,9.88-4.35,13.26-3.62,3.49-9.82,5.07-14.39,5.64-9.65,1.21-15.77.17-27.88,3.13-4.42,1.18-8.5,3.4-11.9,6.47-5.11,4.84-8.58,9.73-13.09,13.84-6.19,5.68-19.39,7.2-24.95,3.9-5.94-3.52-8.82-10.35-6.87-20.36,4.37-22.24,16.96-45.93,42.22-49.6Z"/>
          </g>
          <g id="freepik--cushion--inject-62">
            <path class="cls-32" d="m530.83,419.82c-5.87-2.3-12.86,3.24-24.34,5.32-21.38,3.88-37.58,11.06-49.24,18.79-11.65,7.74-14.45,5.07-18.92,10.66-4.46,5.59,2.15,10.41,3.13,20.36,1.57,16.87,6.12,29.16,12.03,37.66,10.4,15.02,6.12,22.21,12.32,23.88,6.59,1.79,7.72-3.99,19.18-5.07,27.12-2.58,44.96-9.4,60.98-22.94,6.26-5.28,11.73-3.13,14.58-9.15,1.43-3.01-2.69-6-4.02-17.05-2.22-18.4-8.85-36.93-17.23-47.97-3.74-4.76-2.51-12.14-8.49-14.5Z"/>
            <path class="cls-10" d="m530.83,419.82c-5.87-2.3-12.86,3.24-24.34,5.32-21.38,3.88-37.58,11.06-49.24,18.79-11.65,7.74-14.45,5.07-18.92,10.66-4.46,5.59,2.15,10.41,3.13,20.36,1.57,16.87,6.12,29.16,12.03,37.66,10.4,15.02,6.12,22.21,12.32,23.88,6.59,1.79,7.72-3.99,19.18-5.07,27.12-2.58,44.96-9.4,60.98-22.94,6.26-5.28,11.73-3.13,14.58-9.15,1.43-3.01-2.69-6-4.02-17.05-2.22-18.4-8.85-36.93-17.23-47.97-3.74-4.76-2.51-12.14-8.49-14.5Z"/>
            <path class="cls-13" d="m442,467.05c3.13,8.79.34,15.9,7.16,32.35,6.55,15.8,12.9,21.52,14.31,28.19,1.19,5.54,4.01,8.77,6.44,3.37,2.43-5.4,2.55-22.77-3.82-39.48-7.34-19.23-13.19-27.45-17.63-31.23-6.98-5.92-8.9-.05-6.45,6.8Z"/>
            <path class="cls-13" d="m487.17,525.37c-7.41.42-9.4,6.26-14.09,9.99,3.62-2.19,7.7-3.52,11.92-3.88,12.36-1.19,21.66-2.99,29.65-5.89-9.9,2.1-22.1-.52-27.47-.22Zm56.38-20.25c-5.28,2.66-6.8,9.63-13.7,14.81,5.74-3.25,11.14-7.07,16.11-11.4,5.72-4.82,10.76-3.48,13.77-7.83-5,3.7-9.8,1.19-16.15,4.42h-.03Z"/>
            <path class="cls-11" d="m518.3,432.02c-15.16-1.38-34.72,1.69-47.75,9.98-2.47,1.71-6.78,5.94-7.33,9.08-.82,3.88.4,7.91,3.23,10.7,2.85,2.87,7.83,4.28,11.46,4.82,7.72,1.14,15.1-.8,25.26,1.13,4.37,1.13,8.44,3.22,11.9,6.12,4.01,3.98,6.72,7.97,10.26,11.39,4.85,4.7,15.44,6.17,19.97,3.63,4.84-2.72,7.3-8.16,5.94-16.22-3.04-17.88-12.68-37.24-32.93-40.62Z"/>
          </g>
          <g id="freepik--character--inject-62">
            <g id="freepik--Bottom--inject-62">
              <path class="cls-28" d="m533.05,609.69l-15.19-27.41-31.81,19.04,34.37,40.18s19.04-1.08,22.28-10.12c3.24-9.04-4.96-18.43-9.66-21.71Z"/>
              <path class="cls-41" d="m550.58,623.07c1.55,1.25,2.83,2.79,3.77,4.54,1.08,1.77.33,10.09,1.25,14s1.74,4.98,3.37,9.91c1.79,5.47,5.36,10.54.44,24.13-4.92,13.59-12.09,19.86-18.03,22.96-2.21,1.01-4.62,1.48-7.05,1.36,0,0-7.44-3.21-6.08-7.64,1.36-4.43,22.32-69.27,22.32-69.27Z"/>
              <path class="cls-32" d="m516.62,636.65c.14,1.44,2.04,3.71,2.79,4.92,2.54,4.02,3.54,9.4,4.26,14.02,3.46,22.03-5.73,32.73,5.64,41.47,3.3,2.3,10.4,2.04,21.77-11.23,5.81-6.77,9.62-21.08,7.83-27.72-1.79-6.64-4.56-11.04-5.7-16.15-1.14-5.11,0-14.45-2.57-18.9-1.69-2.52-3.93-4.64-6.55-6.19-2.02-1.36-4.29-4.7-6.37-5.92s-3.13-2.74-4.6-1.27l2.3,3.13c3.59,5.48.28,7.6,0,10.41.03,3.04.37,6.08,1.02,9.05-2.57-3.55-3.54-6.62-6.55-6.26-3.01.36-3.35.23-7.83,4.04s-5.56,5.32-5.43,6.59Z"/>
              <path class="cls-12" d="m516.62,636.65c.14,1.44,2.04,3.71,2.79,4.92,2.54,4.02,3.54,9.4,4.26,14.02,3.46,22.03-5.73,32.73,5.64,41.47,3.3,2.3,10.4,2.04,21.77-11.23,5.81-6.77,9.62-21.08,7.83-27.72-1.79-6.64-4.56-11.04-5.7-16.15-1.14-5.11,0-14.45-2.57-18.9-1.69-2.52-3.93-4.64-6.55-6.19-2.02-1.36-4.29-4.7-6.37-5.92s-3.13-2.74-4.6-1.27l2.3,3.13c3.59,5.48.28,7.6,0,10.41.03,3.04.37,6.08,1.02,9.05-2.57-3.55-3.54-6.62-6.55-6.26-3.01.36-3.35.23-7.83,4.04s-5.56,5.32-5.43,6.59Z"/>
              <path class="cls-10" d="m551.08,685.83c5.81-6.77,9.62-21.08,7.83-27.72-.61-2.2-1.36-4.36-2.22-6.47,0,.45.19.91.23,1.28.09.86.16,1.71.2,2.57.34,3.37-.2,6.77-1.57,9.87-1.36,2.66-4.53,9.4-8.21,9.4-2.08,0-3.74-2.13-4.45-4.49-.28-1-.72-3.66-.72-3.66-3.41.62-6.69,1.78-9.73,3.45-5.5,3.27-5.34,4.07-5.34,4.07.27,1.55.27,3.14,0,4.7-.39,1.67-1.13,3.23-2.19,4.57-.43.39-.9.73-1.41,1.02,0,5.04,1.11,9.07,5.89,12.73,3.21,2.22,10.3,1.96,21.67-11.31Z"/>
              <path class="cls-21" d="m523.67,655.59c.88,5.79,1.07,11.67.56,17.51,1.74,5.68,3.51,5.61,3.88,2.72s-2.93-15.1-5.34-25.17c.36,1.68.66,3.34.89,4.93Z"/>
              <path class="cls-21" d="m538.59,621.2c.44-2.71,1.93-6.92.44-9.47-.52-.27-.99-.53-1.38-.77-2.24-1.43-3.13-2.74-4.6-1.27l2.3,3.13c3.59,5.48.28,7.6,0,10.41.03,3.04.37,6.08,1.02,9.05,1.79,9.58,3.66,12.84,4.29,21.85s-1.44,14.94-.19,15.5c1.25.56,3.84-.33,4.7-7.49.86-7.16-1.82-19.36-3.77-25.18-1.96-5.83-3.45-11.96-2.8-15.77Z"/>
              <path class="cls-36" d="m542.74,667.17c-.13.12-.29.21-.47.23-6.34,1-9.77,2.43-14.71,7.72-.36.34-.91.34-1.27,0-.34-.35-.34-.92,0-1.27,5.21-5.59,8.99-7.2,15.74-8.27.49-.07.94.26,1.02.75,0,0,0,0,0,0,.05.31-.07.63-.31.83Z"/>
              <path class="cls-36" d="m541.96,659.66c-.13.13-.29.21-.47.23-6.05.75-11.59,3.78-15.5,8.46-.35.36-.93.37-1.28.02,0,0-.01-.01-.02-.02-.36-.36-.36-.94,0-1.3,5.53-5.86,9.54-7.72,16.51-8.99.5-.08.98.26,1.06.77.05.29-.05.59-.26.8l-.03.03Z"/>
              <path class="cls-36" d="m542.56,651.45c-.14.13-.31.22-.5.25-7.25,1.33-11.56,3.35-17.34,9.49-.39.39-1.02.4-1.42,0,0,0,0,0,0,0-.39-.4-.39-1.03,0-1.43,6.08-6.45,10.76-8.69,18.45-10.1.54-.11,1.07.23,1.19.78.07.36-.05.72-.32.96l-.05.05Z"/>
              <path class="cls-36" d="m541.63,644.37c-.15.12-.32.2-.5.23-7.11,1.3-11.28,3.26-16.94,9.29-.39.38-1.02.38-1.41,0-.39-.39-.39-1.02,0-1.41,5.95-6.26,10.51-8.49,18.03-9.87.52-.11,1.04.23,1.15.75,0,.02,0,.03,0,.05.07.35-.06.72-.33.96Z"/>
              <path class="cls-36" d="m539.42,637.4c-.14.13-.31.22-.5.25-7.11,1.3-11.28,3.24-16.94,9.29-.39.39-1.02.39-1.41,0-.38-.37-.39-.99-.02-1.37,0,0,.01-.01.02-.02,5.95-6.34,10.49-8.5,18.03-9.88.55-.09,1.06.28,1.15.83.05.32-.06.65-.29.88l-.03.03Z"/>
              <path class="cls-25" d="m560,512.76s-50.46-9.99-90.64-3.02c-29.16,5.06-26.5,28.74-21.27,43.32,10.32,28.83,57.77,74.23,57.77,74.23,0,0,21.92-9.51,26.62-23.99l-12.04-25.43,36.21,10.32,3.99-5.17-.64-70.25Z"/>
              <path class="cls-21" d="m497.24,618.66c5.2,5.34,8.63,8.63,8.63,8.63,0,0,21.92-9.51,26.62-23.99l-4.9-10.37-30.35,25.73Z"/>
              <path class="cls-21" d="m513.87,556.1c5.68,7.82,10.91,15.95,15.66,24.37l-9.13-2.6c-10.96-23.96-13.25-30.98-29.88-41.84.05,0,11.87,4.06,23.35,20.08Z"/>
              <polygon class="cls-28" points="518.89 613.87 500.26 629.09 489.72 635.7 500.65 658.97 535.64 642.23 518.89 613.87"/>
              <path class="cls-41" d="m447.03,647.55c-7.97,3.13-12.89,6.26-16.58,11.12-3.7,4.85-4.81,9.69-1.3,15.52,3.51,5.83,9.93,12.68,17.56,12.25,7.63-.44,12.34-2.35,19.42-6.26l-19.09-32.62Z"/>
              <path class="cls-32" d="m510.74,654.3c.11,2.38-9.96,7.16-20.36,12.14-11.21,5.36-13.97,8.85-23.13,13.34-10.46,5.15-14.44,5.45-22.55,3.13s-18.13-13.88-11.17-24.57c5.68-8.71,13.06-11.1,24.24-14.09,8.89-2.25,17.63-5.06,26.15-8.44,8.08-3.13,14.72-8.77,16.4-6.83-2.87,2.17-5.55,4.58-8,7.2-.42.72-1.21,2.19.86,1.33,1.04-.51,2.22-.62,3.34-.31.94.47,4.26,5.5,5.32,8.02.63,1.47,2.74,6.37,1.57,8.47-.44.81-3.49,3.02-2.47,3.62,1.06.15,2.14.01,3.13-.41.74-.3,1.57-.5,2.36-.77s2.46-.97,4.31-1.83Z"/>
              <path class="cls-12" d="m510.74,654.3c.11,2.38-9.96,7.16-20.36,12.14-11.21,5.36-13.97,8.85-23.13,13.34-10.46,5.15-14.44,5.45-22.55,3.13s-18.13-13.88-11.17-24.57c5.68-8.71,13.06-11.1,24.24-14.09,8.89-2.25,17.63-5.06,26.15-8.44,8.08-3.13,14.72-8.77,16.4-6.83-2.87,2.17-5.55,4.58-8,7.2-.42.72-1.21,2.19.86,1.33,1.04-.51,2.22-.62,3.34-.31.94.47,4.26,5.5,5.32,8.02.63,1.47,2.74,6.37,1.57,8.47-.44.81-3.49,3.02-2.47,3.62,1.06.15,2.14.01,3.13-.41.74-.3,1.57-.5,2.36-.77s2.46-.97,4.31-1.83Z"/>
              <path class="cls-10" d="m470.77,678.06c-1.57.75-10.96,5.17-13.97,2.52-3.24-2.87,4.38-7.44,4.38-7.44,0,0,1.16-7.16-7.49-17.7-1.57,1.16-7.74,1.1-7.66-2.58s10.56-8.17,10.7-8.24c-10.7,2.87-17.74,5.32-23.27,13.78-6.97,10.7,3.04,22.32,11.17,24.57s12.09,1.96,22.55-3.13c1.05-.58,2.68-1.25,3.59-1.79Z"/>
              <path class="cls-21" d="m460.17,672.42c-3.96,1.33-1.25,4.93,4.56,3.76,8.69-1.75,15.91-6.69,25.59-9.74,10.46-4.98,21.13-9.63,20.44-12.28-1.88.7-5.87,2.36-5.87,2.36-.78.34-2.8,1.1-2.8,1.1-7.94,3.41-16.71,8.93-25.29,11.24-7.55,2.05-12.65,2.24-16.62,3.55Z"/>
              <path class="cls-21" d="m454.28,656.79c3.62-2.1,4.26-3.88,11.37-7.16,7.11-3.27,19.12-10.24,26.54-14.56,2.79-1.85,5.49-3.84,8.07-5.98-1.24-1.39-5.76-.09-10.29,2.76-4.53,2.85-7.3,4.7-11.79,7.02-8.72,5.25-18.67,8.79-23.65,12s-3.88,8.03-.25,5.94Z"/>
              <path class="cls-1" d="m453.75,655.84c.05.12.12.22.2.31,3.99,5.03,6.35,11.15,6.78,17.56.04.53.46.94.99.97.48-.02.84-.42.83-.9,0-.04,0-.07-.01-.11-1.11-12.01-7.06-18.54-7.39-18.89-.3-.35-.82-.39-1.17-.1-.04.03-.07.06-.1.1-.23.3-.28.7-.13,1.05Z"/>
              <path class="cls-1" d="m460.78,650.7c.04.11.09.21.17.3,4.57,6.04,7.47,13.18,8.41,20.7.04.53.48.95,1.02.96.48-.05.83-.48.78-.96,0-.03,0-.06-.01-.09-.95-7.98-4.04-15.56-8.94-21.92-.29-.38-.83-.45-1.21-.16-.03.02-.05.04-.08.07-.27.31-.32.75-.14,1.11Z"/>
              <path class="cls-1" d="m476.27,670.96c.13.35.45.6.83.64.48,0,.88-.39.88-.87,0-.03,0-.05,0-.08-.42-12.7-8.6-24.62-8.99-25.06-.3-.35-.82-.39-1.17-.1-.04.03-.07.06-.1.1-.32.43-.29,1.02.08,1.41.08.09,7.99,11.75,8.36,23.57.01.14.05.27.11.39Z"/>
              <path class="cls-1" d="m482.77,666.81c.13.34.45.59.81.63.47.03.87-.33.89-.79,0-.04,0-.09,0-.13-.27-8.79-3.62-17.2-9.47-23.76-.31-.35-.84-.38-1.19-.07-.03.02-.05.05-.07.07-.3.44-.23,1.04.16,1.41,5.36,6.18,8.46,13.99,8.79,22.16,0,.17.02.33.09.49Z"/>
              <path class="cls-36" d="m491.19,663.26c.14.34.45.58.81.63.47.03.87-.33.89-.79,0-.04,0-.08,0-.11,0-13.22-9.4-23.49-9.76-23.85-.3-.35-.82-.39-1.17-.1-.04.03-.07.06-.1.1-.32.43-.27,1.04.13,1.41.09.09,9.05,9.98,9.1,22.25,0,.16.03.32.09.47Z"/>
              <path class="cls-25" d="m556.84,512.17l104.53,19.15s10.38,39.15,1.47,62.36c-8.91,23.21-32.24,30.54-43.41,31.32-15.97,1.24-34.45-3.7-34.45-3.7-5.71,4.39-11.94,8.07-18.54,10.96-9.4,3.71-50.22,20.83-50.22,20.83,0,0-16.58-5.36-15.44-25.6l48.34-50.36,7.72-64.96Z"/>
              <path class="cls-21" d="m593.55,607.76s-6.17,8.96-26.18,17.45c-10.62,4.51-44.62,20.66-57.25,24.52,1.82,1.44,3.85,2.59,6.03,3.4,0,0,40.87-17.12,50.22-20.83,6.6-2.89,12.83-6.57,18.54-10.96,8.79-7.66,8.64-13.58,8.64-13.58Z"/>
              <path class="cls-21" d="m606.29,617.55c9.99,1.57,36.93-3.35,45.67-22.33,8.57-18.57,5.68-40.72,3.77-59.82l3.23.77,3.73.86c2.47,11.71,7,38.88.16,56.66-8.91,23.16-32.24,30.54-43.41,31.32-15.97,1.24-34.45-3.7-34.45-3.7l5.31-8.22c5.13,2.13,10.51,3.63,16,4.46Z"/>
              <path class="cls-21" d="m542.35,584.1s3.93-4.23,7.83-8.88c3.9-4.65,10.34-13.42,26.75-12.79,16.41.63,47.95,3.48,47.95,3.48,0,0-32.89-5.61-44.26-7.5-11.37-1.89-18.93-.56-25.42,5.17-6.48,5.73-18.03,19.07-18.03,19.07l5.17,1.46Z"/>
              <path class="cls-21" d="m566.38,561.06c-5.36-6.34-8.1-14.48-7.67-22.77,0,0-3.93,14.97,2.36,25.86l5.31-3.09Z"/>
            </g>
            <g id="freepik--Top--inject-62">
              <path class="cls-32" d="m574.77,400.06c-12.53,2.3-22.85,5.51-30.4,18.6-7.14,12.42-37.01,64.54-37.01,64.54l34.69,18.2,25.37-43.57,7.34-57.77Z"/>
              <path class="cls-7" d="m574.77,400.06c-12.53,2.3-22.85,5.51-30.4,18.6-7.14,12.42-37.01,64.54-37.01,64.54l34.69,18.2,25.37-43.57,7.34-57.77Z"/>
              <g id="freepik--Chest--inject-62">
                <path class="cls-41" d="m557.15,446.02c4.31-35.66,17.23-44.8,23.74-46.81l25.87-2.74c7.67,1.57,39.79,14.53,48.69,17.62,5.72,1.99,8.19,14.09,9.4,33.2,1,15.49,1.16,28.45.64,49.85-.42,17.93-.86,38.37-6.34,63.3-41.31,8.55-86.99-10.32-107.85-50.69,1.16-4.95,1.68-11.17,2.57-23.49.89-12.32,2.13-30.57,3.29-40.23Z"/>
                <path class="cls-32" d="m658.65,414.92l-27.64-12.53s-3.49,8.11-10.96,23.69c-7.47,15.58-7.83,22.64-8.46,49.83-.63,27.19,0,85.93-3.13,96.95,11.98,1.66,51.68-1.19,58.91-5.61,0,0,.66-44.49,1.68-72.27,1.02-27.78,3.21-72.21-10.4-80.07Z"/>
                <path class="cls-9" d="m658.65,414.92l-27.64-12.53s-3.49,8.11-10.96,23.69c-7.47,15.58-7.83,22.64-8.46,49.83-.63,27.19,0,85.93-3.13,96.95,11.98,1.66,51.68-1.19,58.91-5.61,0,0,.66-44.49,1.68-72.27,1.02-27.78,3.21-72.21-10.4-80.07Z"/>
                <path class="cls-32" d="m595.05,400.06c-10.96,4.29-19.06,16.51-21.66,33.4-2.6,16.9-5.18,51.35-7,64.1s-8.86,31.56-8.86,31.56c-4.98-3.13-10.27-14.09-10.49-21.92,2.69-7.83,3.13-11.56,4.28-22.19s3.93-35.17,5.53-48.14c1.6-12.97,6.26-29.07,17.93-36.88,6.63-1.52,13.37-2.5,20.15-2.93l.13,3.01Z"/>
                <path class="cls-9" d="m595.05,400.06c-10.96,4.29-19.06,16.51-21.66,33.4-2.6,16.9-5.18,51.35-7,64.1s-8.86,31.56-8.86,31.56c-4.98-3.13-10.27-14.09-10.49-21.92,2.69-7.83,3.13-11.56,4.28-22.19s3.93-35.17,5.53-48.14c1.6-12.97,6.26-29.07,17.93-36.88,6.63-1.52,13.37-2.5,20.15-2.93l.13,3.01Z"/>
                <path class="cls-32" d="m572.2,443.22c1.57-12.43,8.58-34.69,22.05-39.15.51-1.25.78-2.59.8-3.95l-.13-6.45c-4.03,1.42-7.88,3.3-11.48,5.61-5.81,3.76-15.85,15.75-18.43,25.45,5.83-5.03,8.14,3.02,7.19,18.49Z"/>
                <path class="cls-7" d="m572.2,443.22c1.57-12.43,8.58-34.69,22.05-39.15.51-1.25.78-2.59.8-3.95l-.13-6.45c-4.03,1.42-7.88,3.3-11.48,5.61-5.81,3.76-15.85,15.75-18.43,25.45,5.83-5.03,8.14,3.02,7.19,18.49Z"/>
                <g id="freepik--Head--inject-62">
                  <path class="cls-41" d="m629.57,387.59c2.29-8.52,11.76-16.74,16.37-23.93,4.43-6.92,7.19-12.37,7.42-19.25.13-4.09-1.91-9.82-4.81-11.26,4.9-14.74-5.73-22.8-11.6-24.81-2.77-.86-5.47-1.91-8.1-3.13-3.13-1.68-3.62-4.37-6.04-6.86-4.17-4.28-11.79-5.09-15.25.47-2.65-4.18-6.75-4.48-11.59-3.73-4.23.55-7.31,4.28-7.05,8.53-5.98-4.13-12.2-.22-13.14,3.45-.69,2.71-.33,5.07-2.35,7.36-2.29,2.57-6.09,2.16-7.05-.19-1.02,3.84.22,6.95,4.46,7.14-1.67,2.05-2.33,4.74-1.8,7.33.73,3.29,3.43,5.79,6.77,6.26-.02,2.11.43,4.21,1.32,6.12,1.09,2,2.66,3.7,4.56,4.95,6.09,3.65,13.08,5.31,19.83,7.39l8.02,2.46c.47.16,2.93.53,3.13.99l16.91,30.69Z"/>
                  <path class="cls-28" d="m641.12,377.38c-6.44,3.13-10.18-1.27-10.18-1.27l-.99,17.52v14.27s-17.23,18.48-40.72,17.37c-1.19-5.26.52-14.52,4.31-19.04l.58-13.51c-3.45-.27-6.88-.75-10.27-1.44-7.02-1.9-12.21-7.82-13.17-15.03-1.26-9.88-.62-19.9,1.88-29.54.68-2.31,1.03-4.7,1.03-7.11,0-6.37,1.44-9.94,3.57-15.1,8.05-5.31,26.22-5.48,41.41,5.84-2.77,9.4.23,17.37,6.86,21.69-.56,2.55-1.57,9.07,2.76,9.4,3.13.2,3.65-3.62,7.11-6.72s10.96-3.3,13.28,1.97c3.23,7.31-.41,17.4-7.45,20.7Z"/>
                  <path class="cls-40" d="m594.03,392.71c10.88-.25,19.18-.66,25.53-7.92,3-3.77,5.58-7.85,7.7-12.17,0,0-2,9.4-6.14,15.58-3.13,4.7-10.23,8.24-27.25,8.1l.16-3.59Z"/>
                  <path class="cls-41" d="m601.19,350.43c-.15,1.68,1.09,3.16,2.77,3.31s3.16-1.09,3.31-2.77c.15-1.63-1.03-3.09-2.65-3.3-1.7-.17-3.23,1.05-3.43,2.76Z"/>
                  <path class="cls-41" d="m604.57,341.27l5.81,4.7c1.27-1.67.99-4.04-.63-5.37-1.57-1.25-3.85-1-5.11.57-.03.03-.05.07-.08.1Z"/>
                  <path class="cls-41" d="m576.4,339.23l7.42-.96c-.15-1.98-1.87-3.46-3.84-3.31-.07,0-.14.01-.21.02-2.07.29-3.55,2.16-3.37,4.24Z"/>
                  <path class="cls-41" d="m576.48,346.58c-.15,1.68,1.09,3.16,2.77,3.32,1.68.15,3.16-1.09,3.32-2.77.15-1.64-1.03-3.1-2.67-3.31-1.7-.17-3.22,1.06-3.41,2.76Z"/>
                  <path class="cls-40" d="m579.14,358.51l9.83,6.14,6.14-20.11c-3.7-1.94-10.05,6.8-15.97,13.97Z"/>
                  <path class="cls-40" d="m600.75,371.22l-12.98.91c.06,3.53,2.97,6.34,6.5,6.28.09,0,.19,0,.28-.01,3.66-.32,6.41-3.5,6.2-7.17Z"/>
                  <path class="cls-42" d="m598.93,373.06c.53.02,1.06.1,1.57.25-.71,2.78-3.09,4.81-5.95,5.06-.7.04-1.4-.04-2.07-.23.46-3.14,3.29-5.37,6.45-5.07Z"/>
                </g>
                <path class="cls-32" d="m612.65,451.52c3.01-24.4,13.23-25.67,15.66-17.65,8.88-13.3,9.27-24.71,9.13-29.27-2.43-4.2-4.32-7.72-5.14-9.3-1.06-2.08-2.29-1.66-2.29-1.66v6.26s-1.43,7.11-8.72,16.08c-5.48,6.51-7.36,14.94-8.64,35.53Z"/>
                <path class="cls-7" d="m612.65,451.52c3.01-24.4,13.23-25.67,15.66-17.65,8.88-13.3,9.27-24.71,9.13-29.27-2.43-4.2-4.32-7.72-5.14-9.3-1.06-2.08-2.29-1.66-2.29-1.66v6.26s-1.43,7.11-8.72,16.08c-5.48,6.51-7.36,14.94-8.64,35.53Z"/>
              </g>
              <g id="freepik--Tablet--inject-62">
                <path class="cls-25" d="m490.88,458.3h0l2.43-2.29h0c.75-.54,1.71-.68,2.58-.39l30.01,6.98c2.83.81,5.17,2.82,6.39,5.5l21.92,56.11c.54.93.44,2.09-.25,2.91h0l-2.52,2.36h0c-.75.56-1.73.72-2.62.42l-30.01-6.98c-2.83-.81-5.17-2.82-6.39-5.5l-21.92-56.1c-.58-.98-.43-2.23.38-3.04Z"/>
                <path class="cls-25" d="m526.52,466.47c1.47,1.02,2.62,2.42,3.35,4.06l21.92,56.08c.5.91.44,2.02-.16,2.87l2.36-2.21h0c.68-.83.78-2,.25-2.93l-21.92-56.1c-.69-1.53-1.77-2.85-3.13-3.84l-2.68,2.07Z"/>
                <path class="cls-41" d="m551.86,526.54l-21.92-56.11c-1.23-2.68-3.56-4.68-6.39-5.5l-30.01-6.98c-2.57-.58-3.87.92-2.91,3.38l21.92,56.1c1.22,2.68,3.56,4.69,6.39,5.5l30.01,6.98c2.57.6,3.87-.92,2.91-3.37Z"/>
                <path class="cls-25" d="m530.31,482.37l-4.12-10.49c-.23-.5-.66-.88-1.19-1.03l-5.18-1.19c-.49-.11-.72.17-.55.63l4.12,10.51c.22.5.66.88,1.19,1.03l5.18,1.19c.49.11.72-.17.55-.64Z"/>
                <path class="cls-41" d="m526.05,474.43c-.6-1.25-1.72-2.17-3.05-2.54-1.24-.28-1.89.39-1.44,1.57.59,1.25,1.7,2.18,3.04,2.54,1.24.22,1.89-.45,1.46-1.57Z"/>
                <path class="cls-41" d="m528.06,479.74c-.59-1.25-1.7-2.18-3.04-2.55-1.25-.28-1.89.39-1.46,1.57.59,1.25,1.7,2.18,3.04,2.54,1.24.23,1.86-.44,1.46-1.55Z"/>
                <path class="cls-28" d="m497.69,494.05c-2.91-3.26-2.72-3.76-1.57-5.72,1.78-3.14,4.96-5.23,8.55-5.62,3.13-.25,6.26-.66,7.96,0,1.69.66.69,4.17-3.26,5.53-6.26,2.13-6,3.85-6,3.85,2.65-.92,5.35-1.71,8.08-2.35,2.35-.39,6.78.27,9.52.39s3.65,3.55-.78,5.25l5.01.25c3.52.17,4.89,1.88,2.41,4.31-.79.85-1.84,1.4-2.99,1.57,0,0,3.68-.41,3.88.81.6,3.48-1.57,4.7-8.77,7.61-6.86,2.83-7.83,6.81-6.26,9.29,0,0-3.04-1.35-5.76-2.82-2-1.08-3.74-2.36-3.23-5.36,0,0-4.04.52-4.56-1.96-.26-1.83-.13-3.69.39-5.47-1.57-.68-2.62-2.2-2.69-3.92-.18-1.59.17-3.19,1-4.56l-.94-1.1Z"/>
                <path class="cls-40" d="m520.19,495.38c-1.5-.15-3.02-.15-4.53,0-1.49.39-2.9,1.02-4.2,1.85-2.59,1.47-5.05,3.15-7.34,5.04,2.77-1.07,5.44-2.38,7.99-3.9,1.21-.78,2.49-1.45,3.82-1.99,1.28-.38,2.83-.56,4.26-1Z"/>
                <path class="cls-40" d="m524.63,501.46c-1.63-.28-3.3-.14-4.87.39-1.54.51-3.03,1.17-4.45,1.96-2.83,1.53-5.49,3.35-7.94,5.43,2.93-1.28,5.78-2.71,8.57-4.28,2.65-1.7,5.6-2.89,8.69-3.51Z"/>
              </g>
              <path class="cls-28" d="m572.31,532.57c-9.76-2.18-14.36-2.08-25.5-7.44-3.85-1.68-7.53-3.75-10.96-6.17-3-2.24-5.45-5.12-7.17-8.44-.25-.64-.58-1.25-.99-1.8-.46-.49-.94-.96-1.46-1.39-1.02-.77-1.93-1.68-2.69-2.71-.68-1.19-1.24-2.45-1.68-3.74-.21-.6-.46-1.18-.74-1.75-.34-.55-.72-1.08-1.14-1.57-1.19-1.23-2.17-2.64-2.9-4.18-.35-.84-.25-1.79.27-2.54,0,0-1.57-1.46-2.15-1.99-.74-.74-1.41-1.55-1.99-2.43-.29-.32-.44-.73-.42-1.16.07-.22.21-.42.39-.56,2.62-2.49,6.17-1.13,9.16.3,7.75,3.73,16.44,9.3,20.09,11.18s7.31,2.88,7,.7c-.31-2.18-4.89-7.83-5.5-14.5-.3-3.32,2.57-7.08,5.26-3.27,5.18,7.34,5.31,5.84,11.78,12.53,4.28,4.45,6.87,10.52,13.73,12.28,6.86,1.75,50.11,5.48,50.11,5.48l13.75-52.67s6.51-32.53,19.97-41.84c13.89,6.26,21.41,16.55,22.27,23.6,1.57,12.36-1.39,23.26-8.82,51.93-6.26,24.32-12.39,39.5-16.99,48.12-5.72,10.68-9.4,9.4-32.53,5.84-16.93-2.63-40.37-9.63-50.18-11.81Z"/>
              <path class="cls-40" d="m624.93,509.43c9.08-1.22,19.64,3.13,19.64,3.13-5.59-3.68-12.1-5.72-18.79-5.89l-.85,2.76Z"/>
              <path class="cls-40" d="m517.5,491.26c1.57,1.57,3.29,2.94,4.98,4.31s3.45,2.71,5.15,4.06c.86.67,1.69,1.39,2.6,2.04s1.8,1.24,2.72,1.8c1.86,1.14,3.74,2.21,5.67,3.13l-2.69-1.85c-.89-.6-1.8-1.21-2.68-1.83s-1.79-1.24-2.63-1.91-1.69-1.36-2.55-2.04c-1.72-1.36-3.48-2.66-5.26-3.92l-5.31-3.79Z"/>
              <path class="cls-40" d="m520.98,498.87c.99,1.42,2.12,2.75,3.37,3.96,1.22,1.19,2.49,2.32,3.79,3.4s2.62,2.11,3.98,3.13c1.35,1,2.76,1.91,4.23,2.72-1.32-1.06-2.58-2.16-3.88-3.24l-3.87-3.23-3.87-3.23c-1.27-1.13-2.52-2.32-3.74-3.52Z"/>
              <path class="cls-32" d="m605.2,507.6c4.29,5.09,2.9,28.63,0,34.36,13.59,4,27.62,6.32,41.78,6.91,5.2.09,7.83-3.3,12.53-14.25,4.7-10.95,14.52-38.85,18.79-59.2s6.64-34.89,2.15-44.08c-4.49-9.19-12.53-12.87-21.78-16.41-5.98,3.46-15.33,13.53-21.25,38.71l-13.19,54.81-19.03-.85Z"/>
              <path class="cls-7" d="m605.2,507.6c4.29,5.09,2.9,28.63,0,34.36,13.59,4,27.62,6.32,41.78,6.91,5.2.09,7.83-3.3,12.53-14.25,4.7-10.95,14.52-38.85,18.79-59.2s6.64-34.89,2.15-44.08c-4.49-9.19-12.53-12.87-21.78-16.41-5.98,3.46-15.33,13.53-21.25,38.71l-13.19,54.81-19.03-.85Z"/>
              <path class="cls-16" d="m624.21,508.46c6.66,1.25,13.02,3.7,18.79,7.25,0,0-4.09-8.68-17.96-10.96l-.83,3.71Z"/>
            </g>
          </g>
        </g>
        <g id="freepik--speech-bubble-2--inject-62">
          <g id="freepik--speech-bubble--inject-62">
            <g id="freepik--shadow--inject-62-2" data-name="freepik--shadow--inject-62" class="cls-35">
              <path d="m649.13,191.21c0,5.31-3.73,8.69-8.35,11.35l-98.22,56.77c-4.59,2.66-8.35.52-8.35-4.82v-41.73h0c0-5.94,3.16-11.43,8.3-14.41l98.32-56.85c2.66-1.54,6.06-.63,7.6,2.02.49.85.75,1.82.75,2.8h0l-.05,44.87Z"/>
            </g>
            <g id="freepik--speech-bubble--inject-62-2" data-name="freepik--speech-bubble--inject-62">
              <path class="cls-32" d="m668.97,159.01c-.3-3.48-2.17-6.62-5.09-8.53l-1.89-1.1c-3.23-1.63-7.03-1.63-10.26,0l-96.92,56.02c-3.03,1.97-4.93,5.27-5.12,8.88v47.59c.19,3.6,2.1,6.9,5.12,8.86l1.89,1.1c3.22,1.65,7.04,1.65,10.26,0l-.44.2,42.52-24.43c.72-.41,1.48-.74,2.27-.99l7.83,6.95.6.45,4.29,2.43,7.83,4.56h0c1.9.88,4.12.75,5.9-.34,2.21-1.28,4.01-4.96,4.01-8.24v-17.87c.19-3.61,2.09-6.91,5.12-8.88l16.99-9.77c3.03-1.97,4.93-5.27,5.12-8.88v-47.64c0-.13-.01-.25-.03-.38Z"/>
              <path class="cls-17" d="m668.97,159.01c-.3-3.48-2.17-6.62-5.09-8.53l-1.89-1.1c-3.23-1.63-7.03-1.63-10.26,0l-96.92,56.02c-3.03,1.97-4.93,5.27-5.12,8.88v47.59c.19,3.6,2.1,6.9,5.12,8.86l1.89,1.1c3.22,1.65,7.04,1.65,10.26,0l-.44.2,42.52-24.43c.72-.41,1.48-.74,2.27-.99l7.83,6.95.6.45,4.29,2.43,7.83,4.56h0c1.9.88,4.12.75,5.9-.34,2.21-1.28,4.01-4.96,4.01-8.24v-17.87c.19-3.61,2.09-6.91,5.12-8.88l16.99-9.77c3.03-1.97,4.93-5.27,5.12-8.88v-47.64c0-.13-.01-.25-.03-.38Z"/>
              <path class="cls-32" d="m669,159.36c0-3.27-2.29-4.59-5.12-2.96l-96.92,56.02c-1.29.79-2.39,1.86-3.21,3.13l-12.12-6.98c.79-1.27,1.87-2.34,3.13-3.13l96.92-56.02c3.22-1.63,7.02-1.63,10.24,0l1.91,1.1c3.04,1.95,4.96,5.24,5.17,8.85Z"/>
              <path class="cls-5" d="m669,159.36c0-3.27-2.29-4.59-5.12-2.96l-96.92,56.02c-1.29.79-2.39,1.86-3.21,3.13l-12.12-6.98c.79-1.27,1.87-2.34,3.13-3.13l96.92-56.02c3.22-1.63,7.02-1.63,10.24,0l1.91,1.1c3.04,1.95,4.96,5.24,5.17,8.85Z"/>
              <path class="cls-18" d="m564.67,271.48c-1.66,0-1.83-1.85-1.83-2.65v-47.59c.2-3.24,1.91-6.2,4.62-8l96.92-55.94c.54-.34,1.15-.53,1.79-.56,1.66,0,1.83,1.85,1.83,2.65v47.59c-.22,3.26-1.96,6.22-4.7,8l-16.99,9.83c-3.34,2.15-5.44,5.78-5.62,9.74v17.87c0,2.9-1.57,6.26-3.51,7.36-.9.52-1.92.8-2.96.8h0c-.86.05-1.71-.23-2.38-.77l-14.53-13.47c-.96-.82-2.2-1.23-3.46-1.16-1.9.06-3.75.6-5.39,1.57l-42.08,24.2c-.52.32-1.1.5-1.71.53Z"/>
              <path class="cls-31" d="m666.16,157.74c.72,0,.83,1.03.83,1.57v47.67c-.2,2.88-1.72,5.51-4.12,7.13l-16.96,9.83c-3.64,2.34-5.93,6.29-6.12,10.62v17.87c.02,2.5-1.07,4.89-2.99,6.5-.75.42-1.6.65-2.46.66-.6.05-1.19-.13-1.68-.49l-14.53-13.47c-1.15-1-2.64-1.52-4.17-1.44-2.07.05-4.1.62-5.89,1.68l-42.08,24.18c-.39.25-.83.4-1.28.44-.72,0-.83-1.03-.83-1.57v-47.67c.2-2.88,1.72-5.51,4.12-7.13l96.92-55.94c.39-.25.83-.4,1.28-.44m0-2c-.81.03-1.6.27-2.29.7l-96.92,55.92c-3.02,1.98-4.92,5.27-5.12,8.88v47.59c0,2.32,1.14,3.65,2.83,3.65.81-.03,1.6-.27,2.29-.69l42.08-24.2c1.48-.88,3.16-1.36,4.89-1.41,1-.06,1.99.25,2.77.88l14.53,13.47c.87.75,1.99,1.12,3.13,1.05,1.21,0,2.41-.32,3.46-.92,2.21-1.28,4.01-4.96,4.01-8.24v-17.87c.19-3.61,2.09-6.91,5.12-8.88l16.88-9.77c3.03-1.97,4.93-5.27,5.12-8.88v-47.64c0-2.32-1.16-3.65-2.85-3.65h.06Z"/>
            </g>
            <path class="cls-25" d="m638.81,194.69c3.26-1.86,5.9-.34,5.9,3.41-.23,4.14-2.42,7.93-5.9,10.19-3.24,1.88-5.89.36-5.89-3.4.23-4.15,2.41-7.94,5.89-10.21Z"/>
            <path class="cls-25" d="m615.25,208.28c3.26-1.88,5.89-.36,5.89,3.4-.22,4.15-2.41,7.94-5.89,10.21-3.26,1.86-5.89.34-5.89-3.41.23-4.14,2.41-7.93,5.89-10.19Z"/>
            <path class="cls-25" d="m591.68,221.86c3.26-1.88,5.89-.34,5.89,3.41-.23,4.14-2.41,7.93-5.89,10.19-3.24,1.88-5.89.36-5.89-3.4.23-4.15,2.41-7.94,5.89-10.21Z"/>
          </g>
        </g>
        <g id="freepik--speech-bubble-1--inject-62">
          <g id="freepik--speech-bubble--inject-62-3" data-name="freepik--speech-bubble--inject-62">
            <g id="freepik--shadow--inject-62-3" data-name="freepik--shadow--inject-62" class="cls-35">
              <path d="m614.94,101.07c0,5.31-3.73,8.69-8.35,11.35l-246.43,142.31c-4.59,2.65-8.35.5-8.35-4.82v-92.4h0c0-5.94,3.18-11.42,8.32-14.39L606.58.75c2.67-1.54,6.08-.63,7.62,2.04.49.85.75,1.81.75,2.78h0v95.5Z"/>
            </g>
            <g id="freepik--speech-bubble--inject-62-4" data-name="freepik--speech-bubble--inject-62">
              <path class="cls-32" d="m374.36,267.22l-1.89-1.1c-3.03-1.97-4.94-5.27-5.14-8.88v-98.16c.2-3.61,2.1-6.91,5.14-8.88L617.54,8.66c3.22-1.63,7.02-1.63,10.24,0l1.89,1.1c3.02,1.96,4.93,5.24,5.14,8.83v98.21c-.2,3.61-2.1,6.91-5.14,8.88l-164.93,95.29c-3.23,2.06-5.86,4.92-7.66,8.3l-18.98,40.18c-1.49,3.07-3.74,5.71-6.53,7.67-2.22,1.27-6.26.99-9.15-.64l-1.27-.75c-3.03-1.97-4.93-5.26-5.12-8.86v-11.81c0-3.26-2.3-4.59-5.14-2.96l-26.29,15.19c-3.23,1.61-7.03,1.59-10.24-.06Z"/>
              <path class="cls-17" d="m374.36,267.22l-1.89-1.1c-3.03-1.97-4.94-5.27-5.14-8.88v-98.16c.2-3.61,2.1-6.91,5.14-8.88L617.54,8.66c3.22-1.63,7.02-1.63,10.24,0l1.89,1.1c3.02,1.96,4.93,5.24,5.14,8.83v98.21c-.2,3.61-2.1,6.91-5.14,8.88l-164.93,95.29c-3.23,2.06-5.86,4.92-7.66,8.3l-18.98,40.18c-1.49,3.07-3.74,5.71-6.53,7.67-2.22,1.27-6.26.99-9.15-.64l-1.27-.75c-3.03-1.97-4.93-5.26-5.12-8.86v-11.81c0-3.26-2.3-4.59-5.14-2.96l-26.29,15.19c-3.23,1.61-7.03,1.59-10.24-.06Z"/>
              <path class="cls-32" d="m634.81,18.58c0-3.27-2.29-4.59-5.12-2.96l-245.08,141.55c-1.27.79-2.34,1.86-3.13,3.13l-12.14-7c.79-1.27,1.87-2.34,3.13-3.13L617.54,8.66c3.22-1.63,7.02-1.63,10.24,0l1.91,1.1c3.01,1.96,4.92,5.24,5.12,8.83Z"/>
              <path class="cls-5" d="m634.81,18.58c0-3.27-2.29-4.59-5.12-2.96l-245.08,141.55c-1.27.79-2.34,1.86-3.13,3.13l-12.14-7c.79-1.27,1.87-2.34,3.13-3.13L617.54,8.66c3.22-1.63,7.02-1.63,10.24,0l1.91,1.1c3.01,1.96,4.92,5.24,5.12,8.83Z"/>
              <path class="cls-18" d="m430.1,276.56c-.42-.02-.79-.25-.99-.63-.4-.74-.59-1.57-.55-2.41v-25.18c0-2.79-1.57-4.7-3.84-4.7-.99.03-1.96.32-2.8.85l-37.82,21.83c-.54.34-1.15.54-1.79.56-1.66,0-1.83-1.85-1.83-2.65v-98.13c.2-3.25,1.91-6.21,4.62-8.02L630.25,16.55c.53-.34,1.15-.54,1.79-.56,1.57,0,1.82,1.85,1.82,2.65v98.16c-.2,3.24-1.91,6.21-4.62,8l-164.98,95.29c-3.41,2.16-6.19,5.18-8.07,8.75l-18.98,40.18c-1.41,2.88-3.52,5.37-6.14,7.22-.29.19-.62.3-.97.31Z"/>
              <path class="cls-31" d="m631.98,17.02c.7,0,.81,1.03.81,1.64v98.13c-.2,2.89-1.72,5.52-4.12,7.14l-164.95,95.29c-3.58,2.27-6.49,5.44-8.46,9.19l-18.98,40.18c-1.33,2.69-3.3,5.02-5.73,6.78-.14.08-.29.14-.45.17-.14-.08-.53-.7-.53-2.04v-25.18c0-3.34-1.99-5.67-4.84-5.67-1.17.03-2.31.36-3.3.97l-37.82,21.85c-.38.25-.83.4-1.28.42-.72,0-.83-1.03-.83-1.64v-98.16c.2-2.89,1.72-5.52,4.12-7.14L630.69,17.41c.38-.25.83-.4,1.28-.42m0-2.02c-.81.03-1.61.28-2.3.7l-245.07,141.55c-3.03,1.97-4.93,5.27-5.12,8.88v98.16c0,2.32,1.14,3.66,2.83,3.66.81-.03,1.6-.28,2.29-.7l37.82-21.92c.69-.43,1.49-.66,2.3-.69,1.68,0,2.83,1.33,2.83,3.65v25.18c0,2.51,1.05,4.04,2.54,4.04.52-.01,1.03-.17,1.47-.44,2.79-1.96,5.04-4.6,6.53-7.67l18.98-40.18c1.79-3.38,4.43-6.24,7.66-8.3l164.93-95.29c3.03-1.97,4.94-5.27,5.14-8.88V18.58c0-2.32-1.16-3.66-2.83-3.66v.05Z"/>
            </g>
          </g>
        </g>
        <g id="freepik--Icons--inject-62">
          <g id="freepik--question-marks--inject-62">
            <path class="cls-32" d="m500.13,401.23c-1.76.66-3.62,1.07-5.5,1.21-1.79.15-3.58-.02-5.31-.5-1.66-.47-3.2-1.3-4.51-2.41-1.39-1.2-2.43-2.75-3.04-4.48-.54-1.34-.81-2.78-.78-4.23.06-1.26.29-2.5.7-3.7.41-1.17.93-2.29,1.57-3.35.6-1.06,1.16-2.08,1.68-3.04.51-.91.94-1.87,1.28-2.85.31-.87.37-1.82.17-2.72-.08-.43-.05-.87.11-1.28.15-.39.46-.69.85-.83l4.34-1.57c.41-.17.87-.17,1.28,0,.41.15.72.5.83.92.46,1.36.64,2.81.52,4.24-.11,1.29-.4,2.56-.86,3.77-.42,1.16-.94,2.28-1.57,3.35-.63,1.06-1.19,2.07-1.71,3.01-.47.86-.84,1.77-1.13,2.71-.24.81-.21,1.67.08,2.46.51,1.41,1.68,2.49,3.13,2.88,1.78.46,3.67.32,5.36-.42,3.18-1.12,5.31-4.13,5.31-7.5.02-.4.11-.79.25-1.16.21-.35.54-.61.94-.72l4.6-1.72c.33-.13.69-.13,1.02,0,.34.14.6.42.72.77.46,1.46.56,3.02.3,4.53-.28,1.73-.87,3.4-1.72,4.93-.95,1.68-2.16,3.2-3.59,4.49-1.54,1.41-3.35,2.5-5.32,3.21Zm-14.39-31.51c-.4.18-.86.18-1.27,0-.39-.17-.7-.5-.85-.91l-1.88-5.01c-.17-.4-.17-.85,0-1.25.17-.4.5-.71.91-.86l4.9-1.83c.4-.17.85-.17,1.25,0,.4.17.71.5.86.91l1.88,5.01c.17.4.17.85,0,1.25-.17.4-.51.72-.92.86l-4.89,1.83Z"/>
            <g class="cls-20">
              <path class="cls-2" d="m500.13,401.23c-1.76.66-3.62,1.07-5.5,1.21-1.79.15-3.58-.02-5.31-.5-1.66-.47-3.2-1.3-4.51-2.41-1.39-1.2-2.43-2.75-3.04-4.48-.54-1.34-.81-2.78-.78-4.23.06-1.26.29-2.5.7-3.7.41-1.17.93-2.29,1.57-3.35.6-1.06,1.16-2.08,1.68-3.04.51-.91.94-1.87,1.28-2.85.31-.87.37-1.82.17-2.72-.08-.43-.05-.87.11-1.28.15-.39.46-.69.85-.83l4.34-1.57c.41-.17.87-.17,1.28,0,.41.15.72.5.83.92.46,1.36.64,2.81.52,4.24-.11,1.29-.4,2.56-.86,3.77-.42,1.16-.94,2.28-1.57,3.35-.63,1.06-1.19,2.07-1.71,3.01-.47.86-.84,1.77-1.13,2.71-.24.81-.21,1.67.08,2.46.51,1.41,1.68,2.49,3.13,2.88,1.78.46,3.67.32,5.36-.42,3.18-1.12,5.31-4.13,5.31-7.5.02-.4.11-.79.25-1.16.21-.35.54-.61.94-.72l4.6-1.72c.33-.13.69-.13,1.02,0,.34.14.6.42.72.77.46,1.46.56,3.02.3,4.53-.28,1.73-.87,3.4-1.72,4.93-.95,1.68-2.16,3.2-3.59,4.49-1.54,1.41-3.35,2.5-5.32,3.21Zm-14.39-31.51c-.4.18-.86.18-1.27,0-.39-.17-.7-.5-.85-.91l-1.88-5.01c-.17-.4-.17-.85,0-1.25.17-.4.5-.71.91-.86l4.9-1.83c.4-.17.85-.17,1.25,0,.4.17.71.5.86.91l1.88,5.01c.17.4.17.85,0,1.25-.17.4-.51.72-.92.86l-4.89,1.83Z"/>
            </g>
            <path class="cls-32" d="m533.94,327.09c.89-.6,2.1-.37,2.71.52l3.55,5.25c.58.9.35,2.09-.52,2.71l-5.14,3.48c-.9.58-2.09.35-2.71-.52l-3.55-5.26c-.3-.42-.4-.95-.28-1.46.08-.51.38-.96.81-1.24l5.12-3.48Zm-25.34-32.29c1.84-1.25,3.86-2.23,5.98-2.91,2.02-.67,4.14-.98,6.26-.91,2.04.1,4.04.64,5.86,1.57,1.91,1.01,3.53,2.5,4.7,4.32,1,1.41,1.7,3.01,2.07,4.7.3,1.46.37,2.96.23,4.45-.14,1.45-.4,2.89-.8,4.29l-1.11,3.96c-.33,1.19-.56,2.4-.67,3.63-.1,1.08.09,2.16.56,3.13.21.49.29,1.03.22,1.57-.06.49-.33.94-.75,1.21l-4.53,3.13c-.43.3-.97.41-1.49.31-.52-.06-.98-.37-1.22-.83-.9-1.43-1.51-3.03-1.79-4.7-.2-1.52-.2-3.06,0-4.57.18-1.46.48-2.91.91-4.32.42-1.38.8-2.69,1.13-3.93.3-1.12.48-2.27.55-3.43.06-1-.22-1.99-.78-2.82-.99-1.49-2.65-2.4-4.43-2.43-2.18-.04-4.32.65-6.06,1.96-3.36,2.17-4.98,6.24-4.02,10.13.08.47.08.94,0,1.41-.14.46-.46.85-.88,1.08l-4.84,3.27c-.34.24-.75.33-1.16.27-.42-.08-.8-.33-1.03-.69-.93-1.56-1.47-3.32-1.57-5.14-.17-2.08.04-4.17.61-6.17.62-2.2,1.6-4.28,2.88-6.17,1.34-2.13,3.1-3.98,5.17-5.42v.05Z"/>
            <g class="cls-30">
              <path d="m533.94,327.09c.89-.6,2.1-.37,2.71.52l3.55,5.25c.58.9.35,2.09-.52,2.71l-5.14,3.48c-.9.58-2.09.35-2.71-.52l-3.55-5.26c-.3-.42-.4-.95-.28-1.46.08-.51.38-.96.81-1.24l5.12-3.48Zm-25.34-32.29c1.84-1.25,3.86-2.23,5.98-2.91,2.02-.67,4.14-.98,6.26-.91,2.04.1,4.04.64,5.86,1.57,1.91,1.01,3.53,2.5,4.7,4.32,1,1.41,1.7,3.01,2.07,4.7.3,1.46.37,2.96.23,4.45-.14,1.45-.4,2.89-.8,4.29l-1.11,3.96c-.33,1.19-.56,2.4-.67,3.63-.1,1.08.09,2.16.56,3.13.21.49.29,1.03.22,1.57-.06.49-.33.94-.75,1.21l-4.53,3.13c-.43.3-.97.41-1.49.31-.52-.06-.98-.37-1.22-.83-.9-1.43-1.51-3.03-1.79-4.7-.2-1.52-.2-3.06,0-4.57.18-1.46.48-2.91.91-4.32.42-1.38.8-2.69,1.13-3.93.3-1.12.48-2.27.55-3.43.06-1-.22-1.99-.78-2.82-.99-1.49-2.65-2.4-4.43-2.43-2.18-.04-4.32.65-6.06,1.96-3.36,2.17-4.98,6.24-4.02,10.13.08.47.08.94,0,1.41-.14.46-.46.85-.88,1.08l-4.84,3.27c-.34.24-.75.33-1.16.27-.42-.08-.8-.33-1.03-.69-.93-1.56-1.47-3.32-1.57-5.14-.17-2.08.04-4.17.61-6.17.62-2.2,1.6-4.28,2.88-6.17,1.34-2.13,3.1-3.98,5.17-5.42v.05Z"/>
            </g>
            <path class="cls-32" d="m687.23,381.98c.97.45,1.41,1.59.99,2.57l-2.6,5.79c-.45.98-1.6,1.41-2.58.97l-5.65-2.54c-.47-.21-.83-.6-1-1.08-.21-.47-.21-1.01,0-1.49l2.6-5.79c.21-.47.6-.83,1.08-1,.47-.21,1.01-.21,1.49,0l5.68,2.57Zm14.09-38.52c2.03.91,3.93,2.11,5.62,3.55,1.63,1.37,3,3.02,4.06,4.87,1.01,1.77,1.62,3.75,1.79,5.78.16,2.15-.25,4.31-1.17,6.26-.66,1.58-1.64,3.01-2.87,4.2-1.09,1.03-2.33,1.88-3.68,2.54-1.31.64-2.66,1.16-4.06,1.57l-3.96,1.14c-1.18.34-2.33.78-3.43,1.33-.99.48-1.83,1.22-2.43,2.15-.28.43-.69.78-1.16.99-.45.23-.98.23-1.43,0l-4.93-2.19c-.48-.21-.86-.6-1.05-1.1-.22-.47-.19-1.03.08-1.47.75-1.54,1.82-2.9,3.13-4.01,1.17-.99,2.48-1.81,3.87-2.46,1.33-.65,2.72-1.17,4.15-1.57,1.41-.38,2.71-.75,3.93-1.11,1.09-.33,2.14-.78,3.13-1.33.87-.49,1.57-1.24,1.99-2.15.75-1.63.66-3.51-.25-5.06-1.12-1.88-2.83-3.33-4.87-4.12-3.73-1.68-7.3-1.05-10.73,1.89-.34.32-.74.58-1.17.77-.46.13-.96.07-1.38-.17l-5.32-2.4c-.39-.16-.69-.47-.85-.86-.19-.39-.19-.85,0-1.24.83-1.62,2.04-3.02,3.52-4.07,1.68-1.22,3.56-2.14,5.56-2.71,2.2-.62,4.48-.89,6.77-.8,2.5.1,4.95.7,7.2,1.77h-.06Z"/>
            <g class="cls-30">
              <path d="m687.23,381.98c.97.45,1.41,1.59.99,2.57l-2.6,5.79c-.45.98-1.6,1.41-2.58.97l-5.65-2.54c-.47-.21-.83-.6-1-1.08-.21-.47-.21-1.01,0-1.49l2.6-5.79c.21-.47.6-.83,1.08-1,.47-.21,1.01-.21,1.49,0l5.68,2.57Zm14.09-38.52c2.03.91,3.93,2.11,5.62,3.55,1.63,1.37,3,3.02,4.06,4.87,1.01,1.77,1.62,3.75,1.79,5.78.16,2.15-.25,4.31-1.17,6.26-.66,1.58-1.64,3.01-2.87,4.2-1.09,1.03-2.33,1.88-3.68,2.54-1.31.64-2.66,1.16-4.06,1.57l-3.96,1.14c-1.18.34-2.33.78-3.43,1.33-.99.48-1.83,1.22-2.43,2.15-.28.43-.69.78-1.16.99-.45.23-.98.23-1.43,0l-4.93-2.19c-.48-.21-.86-.6-1.05-1.1-.22-.47-.19-1.03.08-1.47.75-1.54,1.82-2.9,3.13-4.01,1.17-.99,2.48-1.81,3.87-2.46,1.33-.65,2.72-1.17,4.15-1.57,1.41-.38,2.71-.75,3.93-1.11,1.09-.33,2.14-.78,3.13-1.33.87-.49,1.57-1.24,1.99-2.15.75-1.63.66-3.51-.25-5.06-1.12-1.88-2.83-3.33-4.87-4.12-3.73-1.68-7.3-1.05-10.73,1.89-.34.32-.74.58-1.17.77-.46.13-.96.07-1.38-.17l-5.32-2.4c-.39-.16-.69-.47-.85-.86-.19-.39-.19-.85,0-1.24.83-1.62,2.04-3.02,3.52-4.07,1.68-1.22,3.56-2.14,5.56-2.71,2.2-.62,4.48-.89,6.77-.8,2.5.1,4.95.7,7.2,1.77h-.06Z"/>
            </g>
          </g>
        </g>
      </g>
      <g>
        <g>
          <path class="cls-25" d="m160.83,197.21c.46-.71.99-1.37,1.62-1.98.63-.61,1.31-1.13,2.06-1.56.81-.46,1.54-.75,2.21-.84.67-.1,1.3,0,1.88.27l2.3-3.48c-.76-.44-1.7-.57-2.81-.39-1.11.18-2.36.67-3.75,1.47-1.25.72-2.4,1.58-3.44,2.58-1.04,1-1.95,2.09-2.73,3.26-.78,1.18-1.38,2.38-1.8,3.61-.42,1.23-.64,2.43-.64,3.61s.21,2.14.64,2.87c.42.74,1.02,1.25,1.78,1.54.76.29,1.66.33,2.71.13,1.04-.21,2.18-.67,3.42-1.38,1.12-.65,2.24-1.46,3.35-2.44,1.12-.98,2.11-2.05,2.97-3.2v-6.35l-3.31,1.91v4.59c-.24.27-.48.52-.73.75-.68.63-1.38,1.15-2.09,1.56s-1.43.7-2.05.8c-.62.1-1.16.06-1.61-.12-.45-.18-.8-.52-1.05-.99-.25-.48-.37-1.07-.37-1.79s.12-1.49.37-2.25c.25-.75.6-1.48,1.05-2.19Z"/>
          <path class="cls-25" d="m182.84,184.53c-1,.05-2.14.44-3.42,1.18s-2.4,1.65-3.39,2.75c-.99,1.1-1.77,2.28-2.34,3.54-.57,1.26-.85,2.49-.85,3.7s.28,2.09.85,2.7c.57.61,1.35.89,2.34.85.99-.04,2.12-.42,3.39-1.15s2.42-1.67,3.42-2.78c1-1.11,1.78-2.3,2.35-3.55.57-1.25.85-2.48.85-3.69s-.28-2.11-.85-2.72c-.57-.6-1.35-.88-2.35-.84Zm-.75,7.62c-.28.67-.64,1.26-1.1,1.78-.45.52-.98.96-1.58,1.3s-1.08.49-1.54.5c-.46,0-.83-.16-1.11-.51-.28-.35-.41-.86-.41-1.55s.14-1.38.41-2.03c.28-.65.64-1.24,1.11-1.77.46-.53.98-.96,1.57-1.3s1.1-.5,1.55-.51c.45,0,.82.16,1.1.5.28.33.41.85.41,1.55s-.14,1.36-.41,2.03Z"/>
          <polygon class="cls-25" points="188.36 192.76 191.85 190.75 191.85 178.72 188.36 180.73 188.36 192.76"/>
          <path class="cls-25" d="m190.11,174.16c-.66.38-1.18.87-1.59,1.48-.4.61-.6,1.18-.6,1.73s.2.9.6,1.04c.4.14.93.02,1.59-.36s1.18-.87,1.59-1.49c.4-.61.6-1.21.6-1.79,0-.55-.2-.88-.61-1-.41-.11-.94.01-1.58.38Z"/>
          <path class="cls-25" d="m200.48,183.17c-.45.26-.8.32-1.06.19-.26-.13-.39-.45-.39-.96v-4.87l2.97-1.72v-2.68l-2.97,1.72v-2.93l-3.51,2.03v2.93l-1.86,1.07v2.68l1.86-1.07v4.94c0,1.43.4,2.28,1.19,2.55.79.27,1.89,0,3.31-.83.54-.31,1.05-.67,1.55-1.09.5-.41.92-.85,1.26-1.3l-.92-1.93c-.39.52-.87.95-1.43,1.27Z"/>
          <polygon class="cls-25" points="204.4 178.61 210.72 174.95 210.72 172.16 204.4 175.81 204.4 178.61"/>
          <polygon class="cls-25" points="213.72 178.12 217.36 176.02 217.36 160.36 213.72 162.47 213.72 178.12"/>
          <path class="cls-25" d="m232.75,167.13l3.8-2.19-7.02-11.6-3.58,2.07-6.95,19.67,3.71-2.14,1.39-4.16,7.25-4.19,1.39,2.55Zm-7.5-1.77l2.48-7.4,2.48,4.53-4.96,2.87Z"/>
        </g>
        <path class="cls-25" d="m148.69,204.45c-1.03-3.82-2.61-8.72-7.71-8.87-1.19-.04-3.57.16-7.25,2.23,0,0-3.67,2.05-7.25,6.15-5.04,5.77-6.94,14.01-7.71,17.78-.69,3.35-2.5,10.48,2.04,16.04.59.72,1.23,1.3,1.86,1.77.56.41,1.75-.76,1.62-1.6-.07-.45-.11-.95-.1-1.51.02-.98.18-1.93.38-2.77,2.33,1.18,5.45,1.16,8.87-.08l.29-.11.29-.23c3.42-2.71,6.54-6.29,8.87-10.15.2.6.36,1.37.38,2.33.01.55-.03,1.09-.09,1.62-.13,1,1.06.79,1.62-.27.63-1.2,1.27-2.51,1.86-3.92,4.54-10.8,2.73-15.84,2.04-18.39Zm-14.97,8.62c-1.38-.63-3.35.51-5.63,1.82-.1.06-.2.12-.3.18.48-.42.97-.87,1.47-1.35,3.41-3.27,5.91-6.7,7.65-9.45,1.45-.24,2.59.01,3.4.36.98.42,1.81,1.12,2.45,2.03-1.02.35-2.17,1.02-3.42,1.74-2.27,1.31-4.25,2.45-5.62,4.67Zm-9.3,7.38c.52-.91,1.62-1.57,3.67-2.76l.03-.02c2.04-1.18,3.13-1.77,3.64-1.46.53.32.42,1.43.35,2.16-.07.7-.27,2.82-2.02,4.85-1.22,1.41-2.8,2.32-4.01,2.32h0c-1.75,0-1.95-1.9-2.02-2.53-.07-.69-.17-1.64.35-2.56Zm11.25-6.49c.52-.91,1.62-1.57,3.67-2.76,2.06-1.19,3.16-1.79,3.68-1.48.53.32.42,1.43.35,2.16-.07.7-.27,2.82-2.02,4.85-1.22,1.41-2.8,2.32-4.01,2.32-1.75,0-1.95-1.9-2.02-2.53-.07-.69-.17-1.64.35-2.56Zm-1.95,16.64c-4.1,1.4-7.45.62-9.2-1.84.05,0,.11,0,.16,0,1.05,0,2.23-.37,3.41-1.05,1.18-.68,2.36-1.66,3.41-2.88.91-1.06,1.66-2.2,2.22-3.41.56.56,1.3.85,2.21.85,1.05,0,2.23-.37,3.41-1.05s2.36-1.66,3.41-2.88c.06-.07.11-.13.17-.2-1.75,4.48-5.09,9.12-9.2,12.46Z"/>
      </g>
      <text class="cls-26" transform="translate(401.95 199.18) rotate(-30) scale(1.15 .87) skewX(-23.41)"><tspan x="0" y="0">Hola, s</tspan><tspan class="cls-38" x="72.6" y="0">o</tspan><tspan x="86.04" y="0">y Goi</tspan><tspan class="cls-27" x="140.8" y="0">t</tspan><tspan class="cls-19" x="149.73" y="0">-I</tspan><tspan class="cls-29" x="164.72" y="0">A</tspan><tspan x="181.48" y="0">.</tspan><tspan class="cls-33" x="0" y="25.2">T</tspan><tspan x="12.73" y="25.2">u asis</tspan><tspan class="cls-34" x="74.68" y="25.2">t</tspan><tspan x="83.45" y="25.2">en</tspan><tspan class="cls-24" x="111.22" y="25.2">t</tspan><tspan x="119.99" y="25.2">e es</tspan><tspan class="cls-39" x="163.59" y="25.2">c</tspan><tspan x="175.85" y="25.2">ola</tspan><tspan class="cls-27" x="208.89" y="25.2">r</tspan><tspan x="217.73" y="25.2">.</tspan></text>
    </g>
  </g>
</svg>