<?xml version="1.0" encoding="UTF-8"?>
<svg id="Capa_2" data-name="Capa 2" xmlns="http://www.w3.org/2000/svg" viewBox="0 0 53.46 60">
  <defs>
    <style>
      .cls-1 {
        fill: #fff;
      }
    </style>
  </defs>
  <g id="Capa_1-2" data-name="Capa 1">
    <path class="cls-1" d="m51.88,25.69c-1.73-7.43-4.39-17.19-12.96-22.39C36.92,2.08,32.92.1,26.73,0,26.73,0,20.56-.13,14.54,3.29,6.07,8.1,2.89,20.1,1.58,25.69c-1.16,4.97-4.2,15.18,3.43,28.93.99,1.79,2.06,3.38,3.13,4.78.95,1.24,2.94.43,2.73-1.12-.12-.82-.18-1.7-.16-2.63.03-1.63.3-3.08.64-4.29,3.91,4.24,9.16,7.23,14.9,8.46l.49.11.49-.11c5.74-1.23,10.99-4.22,14.9-8.46.34,1.21.61,2.65.64,4.29.02.93-.04,1.81-.16,2.63-.22,1.55,1.78,2.36,2.73,1.12,1.07-1.4,2.13-2.99,3.13-4.78,7.63-13.74,4.59-23.96,3.43-28.93Zm-25.15-.04c-2.31-2.4-5.63-2.4-9.46-2.4-.17,0-.34,0-.51,0,.81-.24,1.63-.52,2.47-.84,5.72-2.19,9.94-5.52,12.85-8.47,2.43,1,4.35,2.54,5.72,3.91,1.65,1.66,3.04,3.64,4.12,5.79-1.71-.39-3.65-.39-5.74-.39-3.82,0-7.14,0-9.45,2.4Zm-15.63,3.38c.87-1.03,2.72-1.08,6.17-1.08h.06c3.42,0,5.25.05,6.12,1.08.89,1.04.71,2.81.59,3.97-.11,1.11-.45,4.49-3.4,6.19-2.05,1.19-4.7,1.19-6.74,0h0c-2.95-1.71-3.28-5.09-3.39-6.21-.12-1.23-.29-2.92.59-3.96Zm18.9,0c.87-1.03,2.72-1.08,6.17-1.08,3.46,0,5.31.05,6.18,1.08.89,1.04.71,2.81.59,3.97-.11,1.11-.45,4.49-3.4,6.19-2.05,1.19-4.7,1.19-6.74,0-2.95-1.71-3.28-5.09-3.39-6.21-.12-1.23-.29-2.92.59-3.96Zm-3.27,26.08c-6.89-1.63-12.51-6.18-15.45-12.01.09.06.18.11.27.16,1.77,1.02,3.75,1.54,5.73,1.54,1.98,0,3.96-.51,5.73-1.53,1.54-.89,2.78-2.09,3.73-3.58.94,1.49,2.19,2.69,3.72,3.58,1.77,1.02,3.75,1.54,5.73,1.54,1.98,0,3.96-.51,5.73-1.53.1-.06.19-.11.28-.17-2.94,5.83-8.56,10.38-15.46,12.02Z"/>
  </g>
</svg>