<?xml version="1.0" encoding="UTF-8"?>
<svg id="Capa_2" data-name="Capa 2" xmlns="http://www.w3.org/2000/svg" viewBox="0 0 228.03 60">
  <defs>
    <style>
      .cls-1 {
        fill: #fff;
      }
    </style>
  </defs>
  <g id="Capa_1-2" data-name="Capa 1">
    <g>
      <g>
        <path class="cls-1" d="m75.68,24.35c.92-.9,2-1.6,3.26-2.09,1.26-.49,2.64-.74,4.14-.74,1.62,0,3.1.29,4.45.88,1.35.58,2.61,1.49,3.78,2.72l4.63-4.32c-1.53-1.77-3.41-3.12-5.65-4.05-2.23-.93-4.75-1.39-7.53-1.39-2.52,0-4.83.4-6.93,1.19-2.1.8-3.93,1.93-5.49,3.4-1.56,1.47-2.77,3.19-3.62,5.17-.85,1.98-1.28,4.15-1.28,6.52s.43,4.54,1.28,6.52c.85,1.98,2.05,3.7,3.58,5.17,1.53,1.47,3.34,2.6,5.44,3.4,2.1.79,4.39,1.19,6.88,1.19,2.25,0,4.5-.34,6.75-1.01,2.25-.68,4.24-1.67,5.98-2.99v-12.78h-6.66v9.24c-.48.26-.97.48-1.46.66-1.37.48-2.77.72-4.21.72-1.5,0-2.87-.25-4.12-.76-1.25-.51-2.32-1.21-3.24-2.11-.91-.9-1.62-1.97-2.11-3.22-.49-1.24-.74-2.59-.74-4.03s.25-2.86.74-4.09c.5-1.23,1.2-2.29,2.11-3.19Z"/>
        <path class="cls-1" d="m119.97,24.42c-2.01-1.06-4.3-1.6-6.88-1.6-2.55,0-4.82.53-6.81,1.6-1.99,1.06-3.56,2.53-4.7,4.41-1.14,1.87-1.71,4.03-1.71,6.46s.57,4.54,1.71,6.41c1.14,1.87,2.71,3.35,4.7,4.43,1.99,1.08,4.27,1.62,6.81,1.62s4.87-.54,6.88-1.62c2.01-1.08,3.58-2.55,4.72-4.41,1.14-1.86,1.71-4,1.71-6.43s-.57-4.58-1.71-6.46c-1.14-1.87-2.72-3.34-4.72-4.41Zm-1.51,14.46c-.56,1.02-1.29,1.79-2.2,2.32-.91.53-1.97.79-3.17.79-1.14,0-2.17-.26-3.1-.79-.93-.52-1.67-1.3-2.23-2.32-.56-1.02-.83-2.22-.83-3.6s.28-2.61.83-3.6c.55-.99,1.3-1.75,2.23-2.27.93-.52,1.98-.79,3.15-.79,1.17,0,2.21.26,3.13.79.91.52,1.65,1.28,2.2,2.27.55.99.83,2.19.83,3.6s-.28,2.58-.83,3.6Z"/>
        <rect class="cls-1" x="131.08" y="23.18" width="7.02" height="24.2"/>
        <path class="cls-1" d="m134.59,11.98c-1.32,0-2.38.38-3.19,1.12-.81.75-1.21,1.68-1.21,2.79s.4,2.04,1.21,2.79c.81.75,1.87,1.13,3.19,1.13,1.32,0,2.38-.38,3.19-1.15.81-.77,1.21-1.73,1.21-2.9,0-1.11-.41-2.02-1.24-2.72-.82-.7-1.88-1.06-3.17-1.06Z"/>
        <path class="cls-1" d="m155.46,42.17c-.9,0-1.61-.28-2.14-.85-.53-.57-.79-1.36-.79-2.38v-9.81h5.98v-5.4h-5.98v-5.89h-7.06v5.89h-3.73s0,5.4,0,5.4h3.73v9.94c0,2.88.79,5.05,2.38,6.5,1.59,1.46,3.81,2.18,6.66,2.18,1.08,0,2.12-.13,3.13-.38,1-.25,1.85-.64,2.54-1.15l-1.84-4.95c-.78.6-1.74.9-2.88.9Z"/>
        <rect class="cls-1" x="163.34" y="31.91" width="12.73" height="5.62"/>
        <rect class="cls-1" x="182.09" y="15.9" width="7.33" height="31.49"/>
        <path class="cls-1" d="m220.38,47.39h7.65l-14.13-31.49h-7.2s-13.99,31.49-13.99,31.49h7.47s2.81-6.75,2.81-6.75h14.59s2.81,6.75,2.81,6.75Zm-15.09-12.28l4.99-12.01,4.99,12.01h-9.98Z"/>
      </g>
      <path class="cls-1" d="m51.88,25.69c-1.73-7.43-4.39-17.19-12.96-22.39C36.92,2.08,32.92.1,26.73,0,26.73,0,20.56-.13,14.54,3.29,6.07,8.1,2.89,20.1,1.58,25.69c-1.16,4.97-4.2,15.18,3.43,28.93.99,1.79,2.06,3.38,3.13,4.78.95,1.24,2.94.43,2.73-1.12-.12-.82-.18-1.7-.16-2.63.03-1.63.3-3.08.64-4.29,3.91,4.24,9.16,7.23,14.9,8.46l.49.11.49-.11c5.74-1.23,10.99-4.22,14.9-8.46.34,1.21.61,2.65.64,4.29.02.93-.04,1.81-.16,2.63-.22,1.55,1.78,2.36,2.73,1.12,1.07-1.4,2.13-2.99,3.13-4.78,7.63-13.74,4.59-23.96,3.43-28.93Zm-25.15-.04c-2.31-2.4-5.63-2.4-9.46-2.4-.17,0-.34,0-.51,0,.81-.24,1.63-.52,2.47-.84,5.72-2.19,9.94-5.52,12.85-8.47,2.43,1,4.35,2.54,5.72,3.91,1.65,1.66,3.04,3.64,4.12,5.79-1.71-.39-3.65-.39-5.74-.39-3.82,0-7.14,0-9.45,2.4Zm-15.63,3.38c.87-1.03,2.72-1.08,6.17-1.08h.06c3.42,0,5.25.05,6.12,1.08.89,1.04.71,2.81.59,3.97-.11,1.11-.45,4.49-3.4,6.19-2.05,1.19-4.7,1.19-6.74,0h0c-2.95-1.71-3.28-5.09-3.39-6.21-.12-1.23-.29-2.92.59-3.96Zm18.9,0c.87-1.03,2.72-1.08,6.17-1.08,3.46,0,5.31.05,6.18,1.08.89,1.04.71,2.81.59,3.97-.11,1.11-.45,4.49-3.4,6.19-2.05,1.19-4.7,1.19-6.74,0-2.95-1.71-3.28-5.09-3.39-6.21-.12-1.23-.29-2.92.59-3.96Zm-3.27,26.08c-6.89-1.63-12.51-6.18-15.45-12.01.09.06.18.11.27.16,1.77,1.02,3.75,1.54,5.73,1.54,1.98,0,3.96-.51,5.73-1.53,1.54-.89,2.78-2.09,3.73-3.58.94,1.49,2.19,2.69,3.72,3.58,1.77,1.02,3.75,1.54,5.73,1.54,1.98,0,3.96-.51,5.73-1.53.1-.06.19-.11.28-.17-2.94,5.83-8.56,10.38-15.46,12.02Z"/>
    </g>
  </g>
</svg>